<svg width="100" height="48" viewBox="0 0 100 48" fill="none" xmlns="http://www.w3.org/2000/svg">
<path d="M51.8897 41.6143C49.9571 41.4875 47.7286 41.154 45.9709 40.6531C45.6417 40.5591 44.2785 40.066 43.9317 39.9095C37.8126 37.1197 33.5497 31.0299 33.5497 23.9648C33.5497 14.2743 41.5601 6.381 51.4125 6.381C61.1774 6.381 69.1337 14.1397 69.2705 23.7206H75.7237C75.5869 10.6392 64.7372 0.0375748 51.4125 0.0375748C38.0082 0.0375748 27.098 10.7691 27.098 23.9648C27.098 33.0619 32.2962 40.974 39.9074 45.0161C41.2817 45.7316 43.2541 46.4689 43.9238 46.6709C46.0934 47.3065 48.7561 47.7292 51.1262 47.9061C51.931 47.9656 54.7417 47.9969 55.5609 48H100V41.6738H55.6356C55.0455 41.6738 52.4671 41.6519 51.8897 41.6143ZM55.6356 31.6812C55.1664 31.6812 52.712 31.6655 52.2587 31.6279C51.4904 31.5637 50.377 31.451 49.6612 31.2898C48.8531 31.0769 48.0944 30.7951 47.7524 30.6104C45.3553 29.3345 43.7218 26.839 43.7218 23.9648C43.7218 19.7833 47.1623 16.3924 51.4125 16.3924C55.5736 16.3924 58.9569 19.6502 59.0921 23.7206H65.2924C65.1619 16.2844 59.003 10.2916 51.4125 10.2916C43.7377 10.2916 37.5167 16.4128 37.5167 23.9648C37.5167 29.2906 40.6184 33.8901 45.1358 36.1429C45.8309 36.5436 47.1384 36.9632 47.5107 37.0587C48.7863 37.389 50.4995 37.6144 51.8897 37.7146C52.4034 37.7569 54.9198 37.7757 55.4511 37.7788V37.7882H99.9984V31.6812H55.6356ZM23.1215 47.9765H16.6253V6.3951H7.13241V0H23.1215V47.9765ZM0 9.5903V15.7396H7.13241V47.9765H13.3741V9.5903H0Z" fill="#D91920"/>
</svg>
