<svg width="128" height="78" viewBox="0 0 128 78" fill="none" xmlns="http://www.w3.org/2000/svg">
<path fill-rule="evenodd" clip-rule="evenodd" d="M25.9652 67.5246C24.6316 67.5246 23.549 68.6067 23.549 69.9403C23.549 71.2754 24.6316 72.3574 25.9652 72.3574C27.3002 72.3574 28.3819 71.2754 28.3819 69.9403C28.3819 68.6067 27.3002 67.5246 25.9652 67.5246ZM124.276 65.7518C125.86 65.7518 127.019 66.6382 127.778 67.5246V63.2418C126.534 62.3991 125.035 62.0605 123.731 62.0605C119.726 62.0605 116.246 64.9285 116.246 69.8632C116.246 74.5897 119.409 77.6696 123.794 77.6696C125.058 77.6696 126.449 77.4784 127.778 76.5721V72.3728C127.019 73.1541 125.819 73.9783 124.276 73.9783C121.916 73.9783 120.503 72.2267 120.503 69.9899C120.503 67.5661 122 65.7518 124.276 65.7518ZM116.699 62.483H111.85L107.4 68.6838V62.483H103.268L103.269 77.2466H107.4V70.8975L111.678 77.2466H116.847L111.09 69.6324L116.699 62.483ZM91.0649 71.3416V62.483H87.0803V77.2466H91.1285L96.8434 68.3876V77.2466H100.828V62.483H96.779L91.0649 71.3416ZM79.0911 69.1261H77.9125V65.731H79.0911C80.8619 65.731 81.1138 66.6801 81.1138 67.4182C81.1143 68.0508 80.925 69.1261 79.0911 69.1261ZM79.9961 62.483H73.7777V77.2466H77.9125V72.3728H79.9961C84.1723 72.3728 85.3743 69.4642 85.3743 67.4182C85.3743 65.3925 84.193 62.483 79.9961 62.483ZM61.4658 66.025H64.7109V77.2466H68.8448V66.025H72.0903V62.483H61.4658V66.025ZM50.0157 71.3416V62.483H46.0315V77.2466H50.0806L55.7928 68.3876V77.2466H59.7775V62.483H55.7311L50.0157 71.3416ZM37.7029 74.2926H35.933V71.1924H37.7029C39.0113 71.1924 39.7707 71.5725 39.7707 72.7339C39.7707 73.9134 38.9901 74.2926 37.7029 74.2926ZM38.1054 68.2401H35.933V66.025H42.7003V62.483H31.8005L31.8 77.2467H38.1054C39.179 77.2467 43.9023 77.2886 43.9023 72.6703C43.9023 68.2198 39.2222 68.2401 38.1054 68.2401ZM8.6717 69.8632C8.6717 74.5897 11.8338 77.6696 16.2192 77.6696C17.4852 77.6696 18.8765 77.4784 20.2052 76.5721V72.3728C19.444 73.1541 18.2429 73.9783 16.7042 73.9783C14.342 73.9783 12.9304 72.2267 12.9304 69.9899C12.9304 67.5661 14.4267 65.7518 16.7042 65.7518C18.2852 65.7518 19.444 66.6382 20.2052 67.5246V63.2418C18.9586 62.3991 17.4631 62.0605 16.1556 62.0605C12.1498 62.0605 8.6717 64.9285 8.6717 69.8632ZM0.0195312 65.8785H2.27711V77.2466H6.09367V62.483H0.0195312V65.8785Z" fill="#1F1A17"/>
<path fill-rule="evenodd" clip-rule="evenodd" d="M65.1241 0.427734C63.3641 0.427734 61.6514 0.626116 60.0019 0.991318V24.0906C60.0019 26.922 62.3081 29.2296 65.1376 29.2296C67.9667 29.2296 70.2739 26.922 70.2739 24.0906C70.2739 21.3768 68.1497 19.1423 65.4797 18.9642V14.8501C70.4131 15.0309 74.382 19.1117 74.382 24.0906C74.382 29.1845 70.2288 33.3397 65.1376 33.3397C60.0438 33.3397 55.8923 29.1845 55.8923 24.0906V2.30064C55.3078 2.54861 54.7385 2.82409 54.1792 3.11716V24.0906C54.1797 30.1291 59.1036 35.053 65.1376 35.053C71.1735 35.0525 76.0952 30.1291 76.0952 24.0906C76.0952 18.1698 71.3583 13.3185 65.4797 13.1363V9.02397C73.6208 9.20792 80.2029 15.9042 80.2029 24.0906C80.2029 32.3929 73.4356 39.1635 65.1376 39.1635C56.8384 39.1631 50.0701 32.3929 50.0701 24.0906V5.844C44.8289 10.1813 41.4883 16.7374 41.4883 24.073C41.4883 37.1328 52.0704 47.7196 65.1241 47.7196C78.181 47.7196 88.7613 37.1328 88.7613 24.073C88.7613 11.0141 78.181 0.427734 65.1241 0.427734Z" fill="#C92433"/>
</svg>
