<svg width="172" height="34" viewBox="0 0 172 34" fill="none" xmlns="http://www.w3.org/2000/svg">
<path d="M166.101 6.71407L160.232 13.1843V6.71407H155.985V23.0499H160.232V16.1732L166.514 23.0499H172L164.273 14.4918L171.441 6.71407H166.101V6.71407ZM148.497 12.8081H142.626V6.71407H138.379V23.0499H142.626V16.6098H148.497V23.0499H152.744V6.71407H148.497V12.8081ZM25.2169 15.5601C25.1154 18.6071 24.7164 19.2156 22.9743 19.2156V23.0499H23.6234C27.9648 23.0499 29.0082 20.8459 29.1687 15.941L29.3458 10.5158H33.4156V23.0568H37.6648V6.71639H25.512L25.2169 15.5601ZM48.2195 11.677H45.1506V6.71407H40.9013V23.0499H48.2761C52.9055 23.0499 54.5579 20.0911 54.5579 17.3066C54.5579 13.7068 52.2563 11.677 48.2171 11.677H48.2195ZM47.8914 19.4525H45.1506V15.3046H47.8937C49.3692 15.3046 50.2544 15.941 50.2544 17.3066C50.2544 18.7859 49.3975 19.4525 47.8937 19.4525H47.8914ZM68.3916 6.33784V0.274044H64.1424V6.33784C59.2793 6.73497 56.0051 10.1396 56.0051 14.8634C56.0051 19.5872 59.2793 23.0174 64.1447 23.4238V29.5735H68.394V23.4284C73.2594 23.0499 76.5336 19.6266 76.5336 14.8634C76.5336 10.1001 73.2593 6.70943 68.3916 6.3332V6.33784ZM64.1424 19.478C61.7817 19.1575 60.3086 17.418 60.3086 14.8634C60.3086 12.3087 61.784 10.5693 64.1424 10.2511V19.478ZM68.3916 19.478V10.2557C70.7523 10.5739 72.2372 12.3087 72.2372 14.8634C72.2372 17.418 70.7617 19.1575 68.401 19.478H68.3916ZM92.4589 18.0311V12.541C92.4589 8.53716 89.8621 6.01271 85.4995 6.01271C80.9859 6.01271 78.5969 8.68115 78.3915 11.4657H82.6974C82.8438 10.8572 83.4929 9.81216 85.4995 9.81216C87.152 9.81216 88.212 10.5669 88.212 12.541H83.9934C80.2163 12.541 77.9784 14.4848 77.9784 17.7339C77.9784 21.1339 80.4288 23.4563 83.9651 23.4563C86.5618 23.4563 87.9972 22.251 88.6251 21.3383C89.1846 22.4414 90.4239 23.0499 92.0457 23.0499H93.5212V19.276C92.7539 19.276 92.4589 18.9276 92.4589 18.0288V18.0311ZM88.2096 16.9559C88.2096 18.8417 86.8522 19.9146 85.0841 19.9146C83.5496 19.9146 82.3409 19.3642 82.3409 17.7385C82.3409 16.1128 83.6676 15.8806 84.8173 15.8806H88.2096V16.9559ZM110.657 9.03648H105.908V4.42418H116.909V0.274044H101.455V23.0499H110.662C115.764 23.0499 118.688 20.5556 118.688 15.9712C118.688 11.6469 115.768 9.03648 110.662 9.03648H110.657ZM110.454 18.9299H105.908V13.0055H110.45C112.81 13.0055 114.137 14.0784 114.137 15.9642C114.137 17.9081 112.81 18.923 110.45 18.923L110.454 18.9299ZM134.93 18.0311V12.541C134.93 8.53716 132.333 6.01271 127.968 6.01271C123.464 6.01967 121.068 8.68812 120.867 11.4727H125.173C125.322 10.8642 125.971 9.81913 127.975 9.81913C129.628 9.81913 130.69 10.5739 130.69 12.548H126.465C122.688 12.548 120.447 14.4918 120.447 17.7408C120.447 21.1339 122.9 23.4563 126.436 23.4563C129.033 23.4563 130.466 22.251 131.096 21.3383C131.656 22.4414 132.895 23.0499 134.517 23.0499H135.99V19.276C135.225 19.276 134.93 18.9276 134.93 18.0288V18.0311ZM130.681 16.9559C130.681 18.8417 129.323 19.9146 127.553 19.9146C126.021 19.9146 124.81 19.3642 124.81 17.7385C124.81 16.1128 126.139 15.8806 127.289 15.8806H130.681V16.9559ZM0 29.3575H22.7099V34H0V29.3575ZM15.4838 3.4C14.8346 1.50027 14.0886 0 11.532 0C8.97535 0 8.1798 1.49331 7.49992 3.4L0.472138 23.0499H5.13214L6.75394 18.3795H15.7246L17.2331 23.0499H22.1905L15.4838 3.4ZM8.11134 14.4337L11.2959 5.10929H11.4139L14.4215 14.4337H8.11134Z" fill="#EF3124"/>
</svg>
