<svg width="150" height="29" viewBox="0 0 150 29" fill="none" xmlns="http://www.w3.org/2000/svg">
<g clip-path="url(#clip0)">
<path d="M66.1232 24.2378C65.3057 24.9777 64.2438 25.3897 63.1412 25.3948C62.2167 25.4093 61.293 25.3333 60.3832 25.1678C59.5472 26.2605 58.4717 27.1468 57.2395 27.7586C56.0072 28.3704 54.651 28.6914 53.2752 28.6968C50.5112 28.6968 48.4416 27.9822 47.0662 26.5528C47.0012 26.4838 46.9572 26.4048 46.8942 26.3348C45.4688 27.6871 43.5915 28.4612 41.6272 28.5069C39.8272 28.5069 38.9272 26.8498 38.9272 23.5359C38.9639 22.3747 39.1018 21.219 39.3392 20.0818C39.5657 19.0201 39.7039 17.9414 39.7522 16.8568C39.7657 16.6735 39.7365 16.4896 39.6669 16.3195C39.5974 16.1493 39.4893 15.9976 39.3512 15.8763C39.2131 15.755 39.0488 15.6673 38.8711 15.6202C38.6935 15.5731 38.5073 15.5679 38.3272 15.6049C37.6766 15.6049 36.9512 16.2439 36.1512 17.5219C35.3538 18.79 34.771 20.181 34.4262 21.6388V21.7138C34.4314 22.6136 34.5637 23.5081 34.8192 24.3708C35.0244 24.9866 35.1566 25.6243 35.2132 26.2709C35.2132 27.1309 34.1502 27.9785 32.0242 28.8139C31.7508 28.9291 31.4587 28.9935 31.1622 29.0038C30.8657 29.0113 30.5755 28.9176 30.3392 28.7382C30.103 28.5589 29.9348 28.3045 29.8622 28.0168C29.5946 27.1511 29.4743 26.2465 29.5062 25.3409C29.5062 24.2162 29.5376 23.1538 29.6002 22.1538C29.6629 21.1538 29.7256 20.2305 29.7882 19.3839C29.8502 18.5359 29.9126 17.7895 29.9752 17.1448C30.0372 16.4998 30.0692 15.9758 30.0692 15.5698C30.1011 15.4045 30.0942 15.2341 30.0491 15.0719C30.0039 14.9097 29.9217 14.7602 29.809 14.6352C29.6963 14.5102 29.5561 14.413 29.3994 14.3513C29.2428 14.2897 29.0739 14.2652 28.9062 14.2798C28.1309 14.2798 27.2309 15.1968 26.2062 17.0308C25.3536 18.3424 24.8263 19.8385 24.6682 21.3948C24.6588 22.4014 24.7914 23.4043 25.0622 24.3738C25.2674 24.9896 25.3996 25.6273 25.4562 26.2738C25.4562 27.1339 24.3932 27.9815 22.2672 28.8168C21.9935 28.9322 21.7011 28.9966 21.4042 29.0069C21.1087 29.0131 20.8198 28.9188 20.5847 28.7395C20.3497 28.5603 20.1824 28.3065 20.1102 28.0198C19.9868 27.6474 19.903 27.2629 19.8602 26.8728C19.3502 27.2218 18.8132 27.5294 18.2542 27.7928C17.3196 28.2512 16.2951 28.4971 15.2542 28.5128C13.9296 28.5128 13.0419 27.3365 12.5912 24.9838C11.9545 26.0572 11.0822 26.9719 10.0402 27.6588C8.76678 28.4141 7.29895 28.7772 5.82024 28.7029C5.03343 28.7368 4.24821 28.6058 3.51506 28.3182C2.78191 28.0306 2.11704 27.5928 1.56322 27.0328C1.03762 26.4993 0.626691 25.8639 0.355668 25.1657C0.0846453 24.4675 -0.0407369 23.7213 -0.0127705 22.9728C-0.0127705 18.6728 1.40024 15.2828 4.22624 12.8028C5.19764 11.9031 6.33896 11.2065 7.58324 10.7538C8.64567 10.4215 9.75304 10.2552 10.8662 10.2608C11.8402 10.2211 12.8083 10.43 13.6792 10.8678C13.7545 10.5896 13.9072 10.3385 14.1197 10.1438C14.3321 9.94905 14.5955 9.81867 14.8792 9.76785C15.3511 9.78474 15.8148 9.8958 16.2431 10.0945C16.6714 10.2932 17.0556 10.5755 17.3732 10.9249C17.7046 11.1923 17.9797 11.5227 18.1825 11.897C18.3854 12.2714 18.5121 12.6822 18.5552 13.1059C18.1052 14.1367 17.5915 15.1387 17.0172 16.1059C16.786 17.7268 16.6856 19.3638 16.7172 21.0008C16.7172 23.1008 16.9802 24.1505 17.5062 24.1498C18.3868 23.8594 19.1723 23.3358 19.7792 22.6348C19.7831 20.8184 19.9131 19.0043 20.1682 17.2058C20.5524 14.8284 21.4206 12.5551 22.7192 10.5268C22.8519 10.2395 23.056 9.99092 23.3122 9.80498C23.5683 9.61904 23.8679 9.50192 24.1822 9.46484C25.0082 9.46484 25.7709 10.1478 26.4702 11.5138C26.652 11.8272 26.803 12.1574 26.9212 12.4998C27.3976 11.8124 28.0302 11.2476 28.767 10.8518C29.5039 10.456 30.324 10.2405 31.1602 10.2228C32.2228 10.2183 33.2502 10.6033 34.0482 11.3048C34.4534 11.6301 34.779 12.0435 35.0002 12.5137C35.2213 12.9839 35.3322 13.4983 35.3242 14.0178V14.4348C35.9611 13.5462 36.7999 12.8215 37.7715 12.3203C38.7432 11.819 39.8199 11.5557 40.9132 11.5518C41.4712 11.512 42.0314 11.5857 42.5601 11.7684C43.0888 11.9511 43.5749 12.2391 43.9892 12.6148C44.3326 12.9573 44.6028 13.3659 44.7835 13.816C44.9641 14.266 45.0515 14.748 45.0402 15.2328C45.0479 16.1737 44.9722 17.1133 44.8142 18.0408C44.6642 18.8748 44.4956 19.6588 44.3082 20.3928C44.1209 21.1268 43.9515 21.7758 43.8002 22.3398C43.6721 22.7719 43.5962 23.2177 43.5742 23.6678C43.5742 23.9858 43.6742 24.1428 43.8742 24.1428C44.4059 24.0681 44.8961 23.8137 45.2632 23.4218L45.3172 23.3728C45.1283 22.6712 45.0345 21.9474 45.0382 21.2208C44.9564 18.3651 45.9618 15.5848 47.8512 13.4418C48.7729 12.375 49.9217 11.5281 51.2135 10.9635C52.5053 10.3988 53.9072 10.1307 55.3162 10.1788C56.4653 10.1365 57.6116 10.3168 58.6922 10.7098C60.1682 11.3165 60.9059 11.8855 60.9052 12.4168C60.9052 12.8222 59.8739 13.0308 57.8112 13.0428C56.8457 13.0261 55.8871 13.2097 54.9961 13.582C54.1051 13.9542 53.3009 14.5072 52.6342 15.2058C51.9432 15.9223 51.4028 16.77 51.045 17.6989C50.6872 18.6278 50.5193 19.619 50.5512 20.6138C50.5202 21.6591 50.8763 22.679 51.5512 23.4778C51.9032 23.8698 52.3389 24.1775 52.8261 24.378C53.3133 24.5784 53.8393 24.6666 54.3652 24.6358C55.4235 24.6761 56.4712 24.4124 57.3842 23.8758C56.5225 23.3018 55.8242 22.5142 55.3575 21.5899C54.8908 20.6656 54.6716 19.6361 54.7212 18.6018C54.7028 17.3687 55.1672 16.1772 56.0152 15.2818C56.4389 14.7948 56.9641 14.4065 57.5539 14.1443C58.1437 13.882 58.7838 13.7522 59.4292 13.7638C59.9827 13.7041 60.5424 13.7782 61.0613 13.9797C61.5802 14.1812 62.0431 14.5043 62.4112 14.9218C63.0401 15.7982 63.357 16.8602 63.3112 17.9379C63.2869 19.2792 62.9934 20.602 62.4482 21.8279H62.6742C63.7402 21.8165 64.7609 21.395 65.5242 20.6508C65.8249 20.3468 66.0816 20.0802 66.2942 19.8508C66.3736 19.7513 66.473 19.6695 66.586 19.6107C66.699 19.552 66.8231 19.5176 66.9502 19.5098C67.3002 19.5098 67.4752 19.9272 67.4752 20.7618C67.5239 21.4054 67.4276 22.0517 67.1937 22.6533C66.9597 23.2548 66.5939 23.7963 66.1232 24.2378ZM7.75322 15.7948C7.00553 16.5838 6.42163 17.5131 6.03526 18.529C5.64889 19.545 5.46774 20.6274 5.50224 21.7138C5.50224 23.6625 6.21491 24.6368 7.64024 24.6368C8.4338 24.5979 9.2028 24.349 9.86867 23.9156C10.5345 23.4822 11.0734 22.8797 11.4302 22.1698C11.8149 21.532 12.1053 20.8419 12.2922 20.1208C12.2509 17.6709 12.503 15.2248 13.0432 12.8348C11.0125 13.2437 9.1618 14.281 7.75322 15.7999V15.7948ZM59.8582 16.8198C59.7261 16.8369 59.602 16.8929 59.5018 16.9807C59.4015 17.0685 59.3296 17.1841 59.2952 17.3129C59.1531 17.6094 59.0767 17.9331 59.0712 18.2618C59.0564 18.7228 59.1351 19.182 59.3027 19.6117C59.4702 20.0414 59.7232 20.4327 60.0462 20.7618C60.4516 19.9342 60.6695 19.0273 60.6842 18.1059C60.6842 17.2485 60.4089 16.8198 59.8582 16.8198Z" fill="#005893"/>
<path d="M146.231 28.0731C145.484 28.0767 144.753 27.8584 144.13 27.446C143.507 27.0336 143.021 26.4456 142.733 25.7565C142.444 25.0674 142.367 24.3082 142.51 23.5752C142.654 22.8421 143.012 22.1681 143.539 21.6387C144.066 21.1092 144.738 20.7481 145.47 20.601C146.203 20.454 146.962 20.5276 147.653 20.8127C148.343 21.0977 148.934 21.5813 149.349 22.2021C149.764 22.823 149.986 23.5531 149.986 24.3001C149.987 24.7944 149.891 25.2841 149.703 25.7412C149.515 26.1984 149.239 26.614 148.89 26.9643C148.541 27.3147 148.127 27.5929 147.671 27.7832C147.215 27.9734 146.725 28.072 146.231 28.0731ZM137.64 26.0051C136.802 26.7476 135.861 27.3637 134.845 27.8341C133.83 28.3102 132.722 28.5551 131.6 28.5511C131.101 28.5778 130.603 28.4917 130.142 28.2992C129.681 28.1067 129.269 27.8127 128.937 27.4391C128.321 26.756 127.98 25.8689 127.98 24.9491C127.999 23.8977 128.15 22.8528 128.43 21.8391C128.731 20.6831 129.056 19.4765 129.406 18.2191C130.15 15.9294 130.641 13.5649 130.869 11.1681C130.891 10.7108 130.814 10.2541 130.643 9.82914C130.564 9.67229 130.44 9.54318 130.286 9.45903C130.132 9.37488 129.956 9.33968 129.781 9.35814C129.31 9.41046 128.855 9.55778 128.442 9.7912C128.029 10.0246 127.669 10.3393 127.381 10.7161C126.433 11.7619 125.626 12.9279 124.981 14.1841C123.349 17.0718 122.411 20.2996 122.242 23.6121L122.392 24.6681C122.444 25.0429 122.469 25.4208 122.467 25.7991C122.449 26.2322 122.333 26.6555 122.129 27.0377C121.924 27.4198 121.636 27.7508 121.286 28.0061C120.556 28.6504 119.615 29.006 118.641 29.0061C118.367 29.0107 118.099 28.9319 117.871 28.78C117.643 28.6282 117.466 28.4106 117.365 28.1561C117.071 27.4995 116.929 26.7845 116.952 26.0651C117.002 24.9152 117.191 23.7756 117.515 22.6711C117.891 21.2371 118.304 19.7158 118.753 18.1071C119.742 15.0249 120.359 11.8357 120.591 8.60714C120.626 7.75963 120.493 6.91356 120.198 6.11813C120.073 5.82676 119.858 5.58269 119.585 5.42097C119.312 5.25926 118.995 5.18825 118.679 5.21814C117.328 5.21814 115.99 6.1848 114.663 8.11813C112.989 10.9062 111.785 13.9509 111.099 17.1301C110.824 18.1861 110.612 19.1035 110.461 19.8821L110.423 20.5991C110.778 22.0871 111.017 23.6003 111.137 25.1251C111.205 25.713 111.094 26.3076 110.82 26.8319C110.546 27.3563 110.121 27.7863 109.599 28.0661C109.123 28.2921 108.666 28.5058 108.229 28.7071C107.788 28.9086 107.307 29.011 106.822 29.0071C105.74 29.0071 105.128 28.1071 104.982 26.3071C104.238 26.9184 103.42 27.4338 102.547 27.8411C101.636 28.292 100.637 28.5368 99.6212 28.5581C98.8596 28.6003 98.1026 28.4167 97.4452 28.0301C96.9132 27.6699 96.4857 27.1756 96.2061 26.5971C95.616 25.0302 95.2622 23.3842 95.1562 21.7131C95.0015 20.018 94.7257 18.336 94.3311 16.6801C93.7071 16.5667 93.1207 16.3008 92.6241 15.9061C92.3977 15.7422 92.2134 15.527 92.0861 15.2781C91.9589 15.0292 91.8924 14.7537 91.8922 14.4741C91.8808 14.2159 91.9483 13.9603 92.0857 13.7413C92.223 13.5224 92.4237 13.3504 92.6612 13.2481C93.2124 12.9887 93.816 12.8598 94.4251 12.8711C95.0534 12.8616 95.6712 13.0316 96.2061 13.3611C96.9002 12.7902 97.4797 12.0929 97.9142 11.3061C98.3952 10.3105 98.6203 9.21068 98.5692 8.10614C98.595 7.50255 98.4874 6.90069 98.254 6.34344C98.0207 5.78618 97.6673 5.28724 97.2192 4.88214C96.0948 4.00352 94.6844 3.57342 93.2611 3.67514C91.9151 3.62982 90.5692 3.76945 89.2611 4.09013C88.4435 4.32556 87.6468 4.62827 86.8792 4.99514C86.2158 5.32181 85.6282 5.6218 85.1162 5.89513C84.6768 6.15136 84.1805 6.294 83.6722 6.31013C83.2242 6.30347 83.0002 6.15647 83.0002 5.86914C83.1094 5.34353 83.3549 4.85588 83.7122 4.45514C84.3023 3.69289 85.0114 3.03074 85.8122 2.49414C88.1134 0.867684 90.8726 0.0158957 93.6902 0.0621338C96.2092 -0.0233441 98.7065 0.555355 100.931 1.74014C101.464 2.04885 101.957 2.42199 102.398 2.85114C102.74 2.32157 103.184 1.86646 103.706 1.51314C105.006 0.584308 106.574 0.107261 108.17 0.155136C109.117 0.0491143 110.068 0.322956 110.813 0.916626C111.559 1.5103 112.038 2.37535 112.147 3.32214C112.246 3.9508 112.321 4.61747 112.372 5.32214C114.222 1.8288 116.561 0.0818053 119.388 0.0811386C122.464 0.0811386 124.227 1.56447 124.678 4.53114C124.832 5.44031 124.894 6.36253 124.865 7.28413V7.58414C126.49 5.32214 128.416 4.19114 130.642 4.19114C133.794 4.19114 135.37 6.1018 135.369 9.92313C135.33 11.8874 135.073 13.8412 134.6 15.7481C134.087 17.9741 133.712 19.5708 133.475 20.5381C133.273 21.2704 133.153 22.0232 133.119 22.7821C133.119 23.7368 133.45 24.2141 134.113 24.2141C134.776 24.2141 136.357 22.9068 138.858 20.2921C139.093 19.9414 139.435 19.677 139.834 19.5391C140.259 19.5391 140.471 20.1171 140.471 21.2731C140.411 22.0891 140.139 22.8753 139.684 23.5551C139.136 24.4746 138.447 25.3015 137.64 26.0051ZM106.108 4.04114C105.766 4.03855 105.431 4.14348 105.151 4.34114C104.864 4.54114 104.576 4.75514 104.289 4.98214C104.161 5.08214 104.028 5.17014 103.898 5.26614C104.149 6.02569 104.275 6.82114 104.27 7.62114C104.366 9.56191 103.767 11.4733 102.582 13.0131C101.469 14.419 99.989 15.4892 98.3051 16.1051C98.692 16.9678 98.9996 17.8638 99.2242 18.7821C99.4615 19.7381 99.6928 20.6181 99.9182 21.4221C100.099 22.1153 100.357 22.7861 100.687 23.4221C100.77 23.6395 100.913 23.8291 101.099 23.9692C101.285 24.1093 101.506 24.1942 101.738 24.2141C102.306 24.144 102.835 23.8852 103.238 23.4791C103.826 22.9891 104.407 22.4558 104.982 21.8791L105.239 21.6181C105.553 19.0541 106.12 15.6208 106.939 11.3181C107.413 8.8048 107.65 7.39714 107.651 7.09514C107.648 5.05847 107.133 4.04047 106.108 4.04114ZM80.7172 8.21814C80.3684 8.21777 80.0238 8.14311 79.7062 7.99913C79.3886 7.85515 79.1053 7.64516 78.8752 7.38314C78.6582 7.12978 78.3924 6.92276 78.0936 6.77448C77.7948 6.6262 77.4691 6.53969 77.1361 6.52013C76.5031 6.50013 74.7882 6.45214 73.3282 8.80914C72.7568 9.58963 72.3332 10.4681 72.0782 11.4011C71.2331 13.6063 70.8176 15.9528 70.8542 18.3141C71.0668 20.0205 71.939 21.5759 73.2842 22.6471C74.0832 23.2055 75.0515 23.4685 76.0232 23.3911C77.7484 23.1959 79.336 22.3553 80.4672 21.0381C81.3182 20.1211 82.0672 19.2521 82.8772 18.3161C83.6872 17.3801 84.3932 16.5211 85.0092 15.7251C85.1222 15.5791 85.2252 15.4601 85.3282 15.3401C86.1 12.681 87.1952 10.1266 88.5891 7.73414C88.8953 7.29578 89.2616 6.90261 89.6772 6.56614C90.0998 6.18577 90.6466 5.97246 91.2152 5.96614C91.5405 5.96614 91.7032 6.39347 91.7032 7.24814C91.7057 8.05488 91.6556 8.86092 91.5532 9.66114C91.3456 11.0345 91.0574 12.3946 90.6902 13.7341C90.0981 15.6975 89.6466 17.7006 89.3391 19.7281V25.2721C89.3938 25.838 89.2763 26.4072 89.002 26.9052C88.7278 27.4032 88.3096 27.8068 87.8022 28.0631C87.3252 28.2891 86.8702 28.5021 86.4312 28.7041C85.9652 28.9106 85.4598 29.013 84.9502 29.0041C83.9002 29.0041 83.3752 27.7908 83.3752 25.3641C83.3752 25.2431 83.3832 25.1121 83.3852 24.9871C82.3337 26.0265 81.1328 26.9029 79.8221 27.5871C77.9392 28.5396 75.8497 29.011 73.7401 28.9591C71.4704 28.9846 69.2766 28.143 67.6061 26.6061C66.6979 25.7333 65.9916 24.6723 65.5367 23.4977C65.0819 22.323 64.8895 21.063 64.9731 19.8061C64.9373 17.0751 65.3553 14.3572 66.2101 11.7631C66.9488 9.52233 68.0516 7.4185 69.4742 5.53614C70.721 3.88039 72.2881 2.49221 74.0822 1.45414C75.5612 0.550708 77.2498 0.047567 78.9822 -0.00585938C81.6855 -0.00585938 83.0371 1.2058 83.0371 3.62914C83.0926 4.7903 82.8287 5.94444 82.2741 6.96614C82.1413 7.28926 81.929 7.57351 81.6567 7.79242C81.3845 8.01133 81.0613 8.15779 80.7172 8.21814Z" fill="#329DC7"/>
</g>
<defs>
<clipPath id="clip0">
<rect width="150" height="29" fill="white"/>
</clipPath>
</defs>
</svg>
