<svg width="91" height="17" viewBox="0 0 91 17" fill="none" xmlns="http://www.w3.org/2000/svg">
<path d="M61.0503 12.7032H69.1596V10.9063H63.8148C64.552 7.95742 69.0674 7.31236 69.0674 4.04099C69.0674 2.29012 67.8695 1 65.3353 1C63.7688 1 62.3865 1.46076 61.465 1.92151L62.0179 3.58023C62.8473 3.16555 63.8148 2.79695 65.0128 2.79695C65.9343 2.79695 66.8097 3.21163 66.8097 4.27137C66.8097 6.6673 61.511 6.8516 61.0503 12.7032ZM69.39 9.84652H74.5965V12.7032H76.6699V9.84652H78.4208V8.09564H76.6699V1H75.1494L69.39 8.46425V9.84652ZM71.7398 8.18779L74.6887 4.22529C74.6887 4.54782 74.5965 5.56148 74.5965 6.483V8.14172H73.2143C72.7996 8.14172 72.0163 8.18779 71.7398 8.18779Z" fill="#005893"/>
<path d="M2.16555 10.9523V7.31237H3.04099C3.82427 7.31237 4.46933 7.40452 4.93009 7.68097C5.39085 7.95743 5.6673 8.41818 5.6673 9.15539C5.6673 10.3994 4.93009 10.9523 3.17922 10.9523H2.16555ZM0.0460756 12.7032H3.13314C6.58881 12.7032 7.83285 11.1827 7.83285 9.06324C7.83285 7.6349 7.23387 6.66731 6.17413 6.1144C5.34477 5.65365 4.28503 5.51542 2.99491 5.51542H2.16555V2.75088H6.81919L7.3721 1.04608H0V12.7032H0.0460756ZM9.2612 12.7032H11.2885L13.9148 8.92502C14.4217 8.23388 14.7903 7.54275 15.0206 7.17414H15.0667C15.0206 7.68097 14.9746 8.32603 14.9746 8.97109V12.6571H17.048V4.36353H15.0206L12.3943 8.14173C11.9336 8.83287 11.5189 9.524 11.2885 9.8926H11.2424C11.2885 9.38577 11.3346 8.74071 11.3346 8.09565V4.4096H9.2612V12.7032ZM20.5958 12.7032H22.7153V6.1144H25.2034L25.7563 4.36353H18.0616V6.1144H20.5958V12.7032ZM26.4935 16.8961H28.5669V12.7032C28.9816 12.8414 29.3962 12.8875 29.857 12.8875C32.4833 12.8875 34.1881 11.0906 34.1881 8.51034C34.1881 5.83795 32.6215 4.13315 29.6266 4.13315C28.4747 4.13315 27.3689 4.36353 26.4474 4.63998V16.8961H26.4935ZM28.5669 10.9063V6.02225C28.8894 5.9301 29.1659 5.88402 29.5345 5.88402C31.055 5.88402 32.0225 6.71339 32.0225 8.51034C32.0225 10.123 31.2393 11.1366 29.6727 11.1366C29.258 11.1366 28.9355 11.0445 28.5669 10.9063ZM35.4321 12.7032H37.4595L40.0858 8.92502C40.5926 8.23388 40.9612 7.54275 41.1916 7.17414H41.2377C41.1916 7.68097 41.1455 8.32603 41.1455 8.97109V12.6571H43.2189V4.36353H41.1916L38.5653 8.14173C38.1045 8.83287 37.6898 9.524 37.4595 9.8926H37.4134C37.4595 9.38577 37.5055 8.74071 37.5055 8.09565V4.4096H35.4321V12.7032ZM44.8776 12.7032H46.9971V9.24755H48.2412C48.4715 9.24755 48.7019 9.47792 48.9784 10.0308L50.0381 12.7032H52.2958L50.7753 9.524C50.4989 8.97109 50.2224 8.64856 49.8077 8.51034V8.46426C50.4989 8.04958 50.591 6.85161 51.0057 6.25263C51.1439 6.06833 51.3282 5.97618 51.6047 5.97618C51.7429 5.97618 51.9272 5.97618 52.0654 6.06833V4.27138C51.835 4.17923 51.4204 4.13315 51.19 4.13315C50.4528 4.13315 49.992 4.4096 49.6695 4.87036C48.9784 5.88402 48.9784 7.6349 47.9647 7.6349H46.9971V4.36353H44.8776V12.7032ZM56.9955 12.8875C58.1474 12.8875 59.2071 12.5189 59.8522 12.0582L59.2532 10.6298C58.6542 10.9523 58.1013 11.1827 57.318 11.1827C55.8897 11.1827 54.9682 10.2612 54.9682 8.55641C54.9682 7.03592 55.8897 5.83795 57.4563 5.83795C58.2856 5.83795 58.8846 6.06833 59.4836 6.48301V4.68606C59.0228 4.4096 58.2856 4.13315 57.2259 4.13315C54.7378 4.13315 52.8026 5.97618 52.8026 8.60249C52.8026 10.9984 54.2771 12.8875 56.9955 12.8875Z" fill="#0BBBEF"/>
<path d="M85.2858 9.84651C87.5435 9.84651 89.3865 8.00349 89.3865 5.74579C89.3865 3.48808 87.5435 1.64506 85.2858 1.64506C83.0281 1.64506 81.1851 3.48808 81.1851 5.74579C81.2311 8.00349 83.0281 9.84651 85.2858 9.84651Z" stroke="#005893" stroke-width="1.7688"/>
<path d="M87.8664 5.74578H85.6087V3.48808H85.0098V6.34477H87.8664V5.74578Z" fill="#005893"/>
</svg>
