<svg width="173" height="32" viewBox="0 0 173 32" fill="none" xmlns="http://www.w3.org/2000/svg">
<path fill-rule="evenodd" clip-rule="evenodd" d="M133.466 17.981H143.434V23.7874H147.403V17.981H150.755V14.4223H147.403V0H144.492L133.466 15.1715V17.981ZM117.503 23.7876H133.028V20.1352H122.795C123.446 17.3739 125.631 15.6065 127.799 13.8531C130.337 11.8005 132.851 9.76712 132.851 6.18119C132.851 2.62245 130.558 0.000219894 125.706 0.000219894C122.707 0.000219894 120.061 0.93673 118.297 1.87324L119.355 5.24468C120.943 4.40182 122.795 3.65261 125.089 3.65261C126.853 3.65261 128.529 4.49547 128.529 6.64944C128.529 8.58363 126.929 9.8087 124.944 11.328C121.932 13.634 118.035 16.6178 117.503 23.7876ZM143.611 6.55414L137.966 14.6081C138.204 14.6081 138.638 14.5892 139.115 14.5684C139.701 14.5429 140.351 14.5145 140.788 14.5145H143.435V11.143C143.435 9.96623 143.504 8.71548 143.556 7.78566C143.587 7.23557 143.611 6.79781 143.611 6.55414Z" fill="#005893"/>
<path fill-rule="evenodd" clip-rule="evenodd" d="M0.0887772 23.5598H6.03685C12.6951 23.5598 15.0921 20.4988 15.0921 16.2319C15.0921 13.3563 13.938 11.4084 11.8961 10.2953C10.2982 9.36771 8.25628 9.08943 5.77052 9.08943H4.17253V3.52388H13.139L14.2044 0.0917969H0V23.5598H0.0887772ZM4.1748 20.0342V12.7063H5.86157C7.37078 12.7063 8.61367 12.8918 9.50144 13.4483C10.3892 14.0049 10.9219 14.9325 10.9219 16.4166C10.9219 18.9211 9.50144 20.0342 6.1279 20.0342H4.1748ZM21.7534 23.5595H17.8472V6.8629H21.8421V14.2836C21.8421 15.5823 21.7534 16.8809 21.6646 17.9012H21.7534C21.8586 17.7254 21.9837 17.5131 22.1252 17.2729C22.5809 16.4997 23.2066 15.438 23.884 14.3764L28.9443 6.77014H32.8505V23.4668H28.8555V16.0461C28.8555 14.7474 28.9443 13.4488 29.0331 12.4284H28.9443C28.8243 12.6291 28.6848 12.8772 28.5259 13.1599L28.5258 13.16L28.5258 13.1601L28.5258 13.1601C28.0968 13.9231 27.5261 14.9382 26.8137 15.9533L21.7534 23.5595ZM39.6835 23.5595H43.7673V10.295H48.5612L49.6266 6.77014H34.8008V10.295H39.6835V23.5595ZM55.0408 32.0004H51.0458H50.957V7.32648C52.7326 6.76993 54.8632 6.30613 57.0827 6.30613C62.8532 6.30613 65.8716 9.73822 65.8716 15.1182C65.8716 20.3128 62.5868 23.9304 57.5265 23.9304C56.6388 23.9304 55.8398 23.8376 55.0408 23.5593V32.0004ZM55.0444 19.9409V10.1085C55.6659 9.92297 56.1985 9.83021 56.9088 9.83021C59.8384 9.83021 61.7027 11.4999 61.7027 15.1175C61.7027 18.364 60.1935 20.4047 57.1751 20.4047C56.3761 20.4047 55.7547 20.2192 55.0444 19.9409ZM72.1782 23.5595H68.272V6.8629H72.2669V14.2836C72.2669 15.5823 72.1782 16.8809 72.0894 17.9012H72.1782C72.2834 17.7254 72.4085 17.5131 72.55 17.2729C73.0057 16.4997 73.6314 15.438 74.3088 14.3764L79.3691 6.77014H83.2753V23.4668H79.2803V16.0461C79.2803 14.7474 79.3691 13.4488 79.4579 12.4284H79.3691C79.2492 12.629 79.1098 12.877 78.9509 13.1595L78.9508 13.1597L78.9506 13.16L78.9505 13.1602C78.5216 13.9231 77.9509 14.9382 77.2385 15.9533L72.1782 23.5595ZM86.4683 23.5593H90.552V16.6024H92.949C93.3929 16.6024 93.8368 17.0662 94.3694 18.1793L96.4113 23.5593H100.761L97.8317 17.1589C97.2991 16.0458 96.7664 15.3965 95.9674 15.1182V15.0255C96.7945 14.507 97.1764 13.3802 97.5385 12.3118C97.7594 11.66 97.9729 11.03 98.2756 10.5731C98.542 10.202 98.8971 10.0165 99.4297 10.0165C99.6961 10.0165 100.051 10.0165 100.318 10.202V6.58441C99.8736 6.39889 99.0746 6.30613 98.6307 6.30613C97.2103 6.30613 96.3225 6.86269 95.7011 7.79028C95.2093 8.54389 94.8992 9.49991 94.6052 10.4061C94.1031 11.9537 93.6482 13.3558 92.4163 13.3558H90.552V6.76993H86.4683V23.5593ZM115.322 22.2607C114.079 23.1883 112.037 23.9304 109.818 23.9304C104.58 23.9304 101.739 20.1272 101.739 15.3038C101.739 10.0165 105.468 6.30613 110.262 6.30613C112.304 6.30613 113.724 6.86269 114.612 7.41924V11.0368C113.458 10.202 112.304 9.73822 110.706 9.73822C107.687 9.73822 105.912 12.15 105.912 15.211C105.912 18.6431 107.687 20.4983 110.439 20.4983C111.949 20.4983 113.014 20.0345 114.168 19.3852L115.322 22.2607Z" fill="#0BBBEF"/>
<path fill-rule="evenodd" clip-rule="evenodd" d="M164.044 17.8193C168.424 17.8193 172 14.1577 172 9.67232C172 5.18693 168.424 1.52539 164.044 1.52539C159.664 1.52539 156.088 5.18693 156.088 9.67232C156.177 14.1577 159.664 17.8193 164.044 17.8193Z" stroke="#005893" stroke-width="1.7688"/>
<path d="M168.964 9.46598H164.692V5.00195H163.559V10.6503H168.964V9.46598Z" fill="#005893"/>
</svg>
