<svg width="110" height="48" viewBox="0 0 110 48" fill="none" xmlns="http://www.w3.org/2000/svg">
<path fill-rule="evenodd" clip-rule="evenodd" d="M20.002 0.120806L1.02145 10.4362L22.0886 22.6439C22.2799 22.7548 22.4969 22.9768 22.4969 23.2164L22.4955 41.2001C22.4955 41.4517 22.2722 41.6234 22.2469 41.6375L20.9908 42.3356C20.7958 42.444 20.5098 42.4544 20.2252 42.2973L19.1049 41.6788C18.9427 41.5892 18.8018 41.371 18.8018 41.1378V25.2255C18.8017 24.9453 18.4958 24.8119 18.2912 24.6931L0 14.0854V35.3632C0 35.8335 0.453721 36.3714 0.837399 36.5969L19.8403 47.765C20.4493 48.123 20.813 48.0636 21.6553 47.644L40.4337 36.6006C40.8716 36.3432 41.2982 35.8624 41.2987 35.3308V14.0817L28.7015 21.4172C28.5432 21.5094 28.2567 21.544 28.0919 21.449L26.9515 20.7921C26.7253 20.6618 26.5193 20.4011 26.5141 20.1272L26.4893 18.8C26.4856 18.6007 26.6193 18.3401 26.7946 18.2385L40.2712 10.4221L21.2939 0.123445C20.9979 -0.0371549 20.3105 -0.0441903 20.002 0.120806Z" fill="#EE3338"/>
<path d="M71.3708 35.3106V10.2793H66.6735V18.4877C66.236 18.233 64.3152 17.8894 62.8072 17.9311C57.7844 18.0702 54.0523 22.0207 54.1544 26.8465C54.288 33.1575 58.0224 35.8048 63.8777 36.1746C66.877 36.3639 70.4759 35.4546 71.3708 35.3106ZM66.6915 31.9285C66.3837 31.9972 64.3467 32.2119 63.5872 32.0887C60.4926 31.5869 59.0031 30.0089 58.9707 27.2647C58.9363 24.3401 60.1578 22.2175 63.7828 22.0672C64.3978 22.0417 66.4246 22.4002 66.6735 22.6306L66.6915 31.9285Z" fill="#606163"/>
<path d="M110.001 35.3106V10.2793H105.303V18.4877C104.866 18.233 102.945 17.8894 101.437 17.9311C96.4144 18.0702 92.6821 22.0207 92.7843 26.8465C92.9179 33.1575 96.6523 35.8048 102.508 36.1746C105.507 36.3639 109.106 35.4546 110.001 35.3106ZM105.321 31.9285C105.014 31.9972 102.977 32.2119 102.217 32.0887C99.1225 31.5869 97.633 30.0089 97.6007 27.2647C97.5662 24.3401 98.7878 22.2175 102.413 22.0672C103.028 22.0417 105.055 22.4002 105.303 22.6306L105.321 31.9285Z" fill="#606163"/>
<path d="M74.0078 19.402V42.9074H78.7619L78.7439 22.4651C79.0517 22.3965 81.0739 22.1259 81.8419 22.1709C84.9764 22.3543 86.4026 24.0973 86.4751 26.8441C86.5214 28.5991 85.9358 30.0551 84.7855 30.9634C83.9189 31.6478 82.7136 32.003 81.3186 32.0426L81.327 36.1537C83.5164 36.2169 85.7317 35.757 87.4874 34.6292C89.7634 33.1673 91.3808 29.9254 91.2915 26.8434C91.1301 21.2707 87.9799 18.0987 81.5697 17.9637C78.565 17.9004 74.9197 18.9474 74.0078 19.402Z" fill="#606163"/>
</svg>
