<svg width="91" height="32" viewBox="0 0 91 32" fill="none" xmlns="http://www.w3.org/2000/svg">
<path d="M47.6858 11.8298H44.7135L40.3411 16.1712V7.68234H37.9827V22.7533H40.3411V18.8428L41.7842 17.4854L45.1119 22.7533H48.0627L43.4858 15.8264L47.6858 11.8298ZM50.0227 15.1909H52.3166C52.5104 13.7689 53.1889 13.241 54.7504 13.241C56.2797 13.241 57.0012 13.7689 57.0012 14.8892C57.0012 15.2878 56.9582 15.5464 56.8505 15.6756C56.6135 15.988 56.1289 16.0958 54.4489 16.3112C52.2627 16.5913 49.5489 16.8606 49.5489 19.7585C49.5489 21.7729 50.9704 23.0226 53.2427 23.0226C54.6858 23.0226 56.0858 22.6671 57.0766 21.7083C57.2489 22.6563 57.9274 23.0226 58.8535 23.0226C59.3166 23.0226 59.6612 22.9795 60.4259 22.7856V21.0943C60.1243 21.1374 60.0489 21.1374 59.8766 21.1374C59.4351 21.1374 59.3059 20.965 59.3059 20.3294V14.7815C59.3059 12.4331 57.3997 11.4743 54.8151 11.4743C52.1443 11.4959 50.3027 12.5085 50.0227 15.1909ZM56.9797 17.27V18.5627C56.9797 19.2198 57.0012 19.9416 56.4951 20.4479C55.9458 20.9973 55.0089 21.3205 54.0181 21.3205C52.7689 21.3205 52.0474 20.728 52.0474 19.6938C52.0474 18.2503 53.3181 18.0456 54.4489 17.8732C55.2997 17.7332 56.1935 17.7117 56.9797 17.27ZM71.3567 15.0077C71.3567 12.53 69.2782 11.5174 66.7797 11.5174C63.9797 11.5174 62.2997 12.7455 62.2997 14.8246C62.2997 17.173 64.2705 17.4962 66.7797 18.1102C68.1582 18.4442 69.3859 18.6381 69.3859 19.7369C69.3859 20.7065 68.449 21.3205 67.0274 21.3205C65.5197 21.3205 64.5074 20.7065 64.3782 19.2629H62.0628C62.192 21.7622 63.8828 23.0764 66.9844 23.0764C69.9136 23.0764 71.7551 21.676 71.7551 19.4784C71.7551 17.0653 69.4182 16.5805 67.5121 16.1389C65.7567 15.7403 64.712 15.6541 64.712 14.5553C64.712 13.7473 65.4336 13.2841 66.6613 13.2841C67.9536 13.2841 68.869 13.6827 69.0413 15.0185L71.3567 15.0077ZM76.7736 11.8298H74.5013V26.793H76.9029V21.3097C77.7752 22.5163 78.9813 23.0226 80.4675 23.0226C83.4183 23.0226 85.3245 20.7819 85.3245 17.3238C85.3245 13.7904 83.3752 11.5066 80.3383 11.5066C78.9167 11.5066 77.5383 12.056 76.7736 13.2841V11.8298ZM79.8429 13.4565C81.706 13.4565 82.8798 14.9646 82.8798 17.3346C82.8798 19.6615 81.7383 21.105 79.886 21.105C77.9583 21.105 76.806 19.6615 76.806 17.2915C76.8167 14.9 77.9367 13.4565 79.8429 13.4565ZM90.666 7.61771H88.2537V9.98768H90.666V7.61771ZM90.666 11.8298H88.2537V22.7533H90.666V11.8298Z" fill="#1C1B17"/>
<path d="M6.89234 29.0228C8.56158 22.096 6.58003 21.859 6.58003 18.498C6.58003 17.3776 7.46312 14.6952 7.59235 13.3918C7.89389 10.397 7.15081 11.1941 9.33697 8.97497L9.4662 5.894C10.5647 4.83828 11.1139 3.89029 12.4601 4.22425C13.2785 6.65886 11.7278 5.894 11.577 8.73798C12.4924 9.95528 13.1062 10.0738 13.7955 11.6035C14.6678 13.5426 14.0432 13.521 15.6909 15.1477C18.1139 15.4278 19.5786 15.4386 21.3124 13.6934C21.4955 11.8297 20.4186 11.9913 21.517 10.2785C22.2709 9.10425 23.014 8.46866 24.4247 8.94266C24.8878 10.774 22.8094 11.151 23.4555 13.1871C26.2448 13.4672 26.8909 9.62133 29.0232 9.42742C29.0232 13.5318 24.7371 14.0704 24.6401 17.4099C24.5755 19.4998 26.4278 25.2524 28.3017 26.4805C29.9494 23.9489 31.7263 21.1911 31.9309 18.1317C33.3633 -2.74565 5.7508 -6.54838 0.506157 11.7328C0.236924 12.67 0.075385 13.618 0 14.566V16.9898C0.463079 23.0009 4.16771 28.2795 6.89234 29.0228Z" fill="#EF4635"/>
<path d="M14.9691 31.8238C22.4323 32.7071 21.6461 30.4018 20.1707 21.9022C19.5892 18.5519 18.9107 16.7852 14.9368 17.0976C12.4599 20.0385 13.7091 25.7696 13.7953 28.2796C13.8599 30.2617 13.5261 30.391 14.9691 31.8238ZM23.5523 29.777C24.8015 29.6262 25.0169 29.3676 26.0292 28.5597C26.1907 26.8468 25.0169 24.089 23.1861 23.5396C22.3246 25.1986 22.5723 28.1503 23.5523 29.777ZM11.2537 31.199C11.2537 29.1091 11.5122 24.7892 10.4353 23.3026C9.00295 23.7228 9.44449 24.9508 9.43372 27.5686C9.42295 29.4861 9.06757 31.005 11.2537 31.199Z" fill="#EF4635"/>
</svg>
