<svg width="128" height="45" viewBox="0 0 128 45" fill="none" xmlns="http://www.w3.org/2000/svg">
<path d="M67.0584 16.6362H62.8786L56.7299 22.7412V10.8038H53.4133V31.9973H56.7299V26.4982L58.7593 24.5894L63.4389 31.9973H67.5885L61.1521 22.2565L67.0584 16.6362ZM70.3447 21.3627H73.5705C73.8431 19.363 74.7972 18.6207 76.9931 18.6207C79.1436 18.6207 80.1583 19.363 80.1583 20.9385C80.1583 21.499 80.0977 21.8626 79.9463 22.0444C79.6131 22.4837 78.9316 22.6352 76.5691 22.9382C73.4948 23.3321 69.6784 23.7108 69.6784 27.7859C69.6784 30.6188 71.6774 32.3761 74.8729 32.3761C76.9022 32.3761 78.871 31.8761 80.2643 30.5279C80.5066 31.861 81.4607 32.3761 82.7631 32.3761C83.4143 32.3761 83.8989 32.3155 84.9742 32.0428V29.6644C84.5501 29.725 84.4441 29.725 84.2018 29.725C83.5809 29.725 83.3992 29.4826 83.3992 28.5888V20.787C83.3992 17.4845 80.7186 16.1363 77.084 16.1363C73.3282 16.1666 70.7385 17.5906 70.3447 21.3627ZM80.128 24.2865V26.1043C80.128 27.0284 80.1583 28.0434 79.4465 28.7554C78.6741 29.528 77.3566 29.9825 75.9633 29.9825C74.2065 29.9825 73.1919 29.1493 73.1919 27.695C73.1919 25.665 74.9789 25.3772 76.5691 25.1348C77.7655 24.9379 79.0224 24.9076 80.128 24.2865ZM100.346 21.1051C100.346 17.6209 97.4229 16.1969 93.9094 16.1969C89.9718 16.1969 87.6093 17.9238 87.6093 20.8476C87.6093 24.1501 90.3807 24.6046 93.9094 25.4681C95.8478 25.9377 97.5743 26.2104 97.5743 27.7556C97.5743 29.119 96.2567 29.9825 94.2577 29.9825C92.1375 29.9825 90.7139 29.119 90.5322 27.089H87.2761C87.4579 30.6036 89.8355 32.4518 94.1971 32.4518C98.3164 32.4518 100.906 30.4824 100.906 27.392C100.906 23.9986 97.6197 23.3169 94.9392 22.6958C92.4707 22.1353 91.0016 22.0141 91.0016 20.4689C91.0016 19.3327 92.0163 18.6813 93.7428 18.6813C95.5601 18.6813 96.8474 19.2418 97.0897 21.1203L100.346 21.1051ZM107.963 16.6362H104.768V37.6782H108.145V29.9674C109.372 31.664 111.068 32.3761 113.158 32.3761C117.307 32.3761 119.988 29.225 119.988 24.3622C119.988 19.3933 117.247 16.1817 112.976 16.1817C110.977 16.1817 109.039 16.9543 107.963 18.6813V16.6362ZM112.279 18.9237C114.899 18.9237 116.55 21.0446 116.55 24.3773C116.55 27.6495 114.945 29.6795 112.34 29.6795C109.629 29.6795 108.009 27.6495 108.009 24.3167C108.024 20.9537 109.599 18.9237 112.279 18.9237ZM127.5 10.7129H124.107V14.0457H127.5V10.7129ZM127.5 16.6362H124.107V31.9973H127.5V16.6362Z" fill="#1C1B17"/>
<path d="M9.69239 40.8135C12.0398 31.0727 9.25321 30.7394 9.25321 26.0129C9.25321 24.4374 10.495 20.6653 10.6768 18.8322C11.1008 14.6208 10.0559 15.7418 13.1302 12.6211L13.3119 8.28847C14.8566 6.80386 15.629 5.47075 17.522 5.94037C18.673 9.36405 16.4922 8.28847 16.2802 12.2878C17.5675 13.9997 18.4307 14.1663 19.3999 16.3175C20.6266 19.0443 19.7483 19.014 22.0653 21.3015C25.4728 21.6954 27.5325 21.7105 29.9707 19.2564C30.2282 16.6356 28.7137 16.8628 30.2584 14.4541C31.3185 12.8029 32.3635 11.9091 34.3474 12.5757C34.9986 15.151 32.0758 15.6812 32.9844 18.5444C36.9068 18.9383 37.8155 13.53 40.8141 13.2574C40.8141 19.0292 34.7866 19.7866 34.6503 24.4828C34.5594 27.4217 37.1643 35.5113 39.7994 37.2383C42.1165 33.6783 44.6153 29.8001 44.903 25.4978C46.9172 -3.86108 8.08709 -9.2087 0.711785 16.4993C0.333176 17.8172 0.106011 19.1503 0 20.4835V23.892C0.651208 32.3452 5.86087 39.7682 9.69239 40.8135Z" fill="#EF4635"/>
<path d="M21.0505 44.7527C31.5456 45.9949 30.44 42.753 28.3652 30.8004C27.5474 26.0891 26.5933 23.6046 21.0051 24.0439C17.5219 28.1796 19.2786 36.2389 19.3998 39.7687C19.4906 42.5561 19.0212 42.7379 21.0505 44.7527ZM33.1206 41.8744C34.8773 41.6623 35.1802 41.2987 36.6038 40.1626C36.8309 37.7539 35.1802 33.8757 32.6057 33.1031C31.3941 35.436 31.7424 39.5869 33.1206 41.8744ZM15.8257 43.8741C15.8257 40.9352 16.1892 34.8604 14.6747 32.7698C12.6605 33.3606 13.2814 35.0876 13.2663 38.7688C13.2512 41.4654 12.7514 43.6014 15.8257 43.8741Z" fill="#EF4635"/>
</svg>
