<svg width="200" height="31" viewBox="0 0 200 31" fill="none" xmlns="http://www.w3.org/2000/svg">
<path d="M60.7227 22.0047C60.7227 22.6816 60.9354 22.933 61.6509 22.933H63.5848C64.2616 22.933 64.513 22.6816 64.513 22.0047V7.32669C64.513 6.64984 64.2616 6.39844 63.5848 6.39844H61.6509C60.9354 6.39844 60.7227 6.64984 60.7227 7.32669V22.0047Z" fill="white"/>
<path d="M67.2013 6.39844C66.4664 6.39844 66.2344 6.6305 66.2344 7.34603V8.91246C66.2344 9.62799 66.4664 9.84071 67.2013 9.84071H70.8563V21.9854C70.8563 22.7009 71.069 22.933 71.7846 22.933H73.6797C74.3953 22.933 74.6273 22.7009 74.6273 21.9854V9.84071H78.263C78.9785 9.84071 79.2106 9.62799 79.2106 8.91246V7.34603C79.2106 6.6305 78.9785 6.39844 78.263 6.39844H67.2013Z" fill="white"/>
<path d="M81.8988 6.39844C81.1832 6.39844 80.9512 6.6305 80.9512 7.34603V21.9854C80.9512 22.7009 81.1832 22.933 81.8988 22.933H90.7559C91.4714 22.933 91.7034 22.7009 91.7034 21.9854V20.4189C91.7034 19.7421 91.4327 19.4713 90.7559 19.4713H84.7415V7.34603C84.7415 6.6305 84.5095 6.39844 83.7746 6.39844H81.8988Z" fill="white"/>
<path d="M116.341 6.39844C115.606 6.39844 115.432 6.49513 115.084 7.11397L110.791 14.9654L106.517 7.09463C106.169 6.53381 105.937 6.39844 105.202 6.39844H103.693C102.959 6.39844 102.727 6.64984 102.727 7.32669V22.0047C102.727 22.6816 102.959 22.933 103.693 22.933H105.337C106.053 22.933 106.266 22.6816 106.266 22.0047V16.7446C106.266 15.2168 106.033 13.457 105.569 11.4652H105.782C106.266 13.2443 106.826 14.6947 107.503 15.797L109.186 18.7558C109.456 19.2973 109.669 19.4327 110.249 19.4327H111.332C111.893 19.4327 112.086 19.2586 112.377 18.7558L114.02 15.797C114.794 14.4626 115.393 13.0122 115.877 11.4652H116.07C115.567 13.4764 115.316 15.2168 115.316 16.7059V22.0047C115.316 22.6816 115.509 22.933 116.244 22.933H117.985C118.72 22.933 118.952 22.7202 118.952 22.0047V7.32669C118.952 6.61116 118.72 6.39844 117.985 6.39844H116.341Z" fill="white"/>
<path d="M121.041 18.1173C121.041 21.2501 122.781 23.2807 126.611 23.2807C129.125 23.2807 130.826 22.5652 131.735 21.1148C132.083 20.5153 131.967 20.0511 131.368 19.7417L130.227 19.1616C129.55 18.8135 129.26 18.9102 128.873 19.471C128.409 20.0898 127.655 20.3992 126.649 20.3992C125.257 20.3992 124.561 19.7804 124.561 18.5621V17.9626H131.039C131.851 17.9626 132.238 17.5758 132.238 16.8022V15.3905C132.238 12.5284 130.343 10.4785 126.63 10.4785C123.014 10.4785 121.041 12.2963 121.041 15.6419V18.1173ZM128.699 15.4292H124.561V15.0618C124.561 13.8628 125.257 13.2633 126.63 13.2633C128.003 13.2633 128.699 13.8628 128.699 15.0618V15.4292Z" fill="white"/>
<path d="M139.45 10.4785C137.516 10.5365 136.027 10.7686 134.963 11.194C134.229 11.5035 134.035 11.7742 134.035 12.5477V22.0623C134.035 22.7199 134.248 22.9326 134.905 22.9326H136.723C137.342 22.9326 137.555 22.7199 137.555 22.0623V13.9401C137.555 13.8434 137.593 13.8048 137.69 13.7854C138.193 13.6694 138.715 13.6114 139.353 13.6114H140.204C140.842 13.6114 141.074 13.3986 141.074 12.7798V11.3294C141.074 10.6719 140.842 10.4785 140.204 10.4785H139.45Z" fill="white"/>
<path d="M141.887 18.3493C141.887 21.6369 143.666 23.2807 147.205 23.2807C149.893 23.2807 151.691 22.2557 152.562 20.2058C152.813 19.587 152.6 19.1809 151.943 18.9682L150.434 18.504C149.758 18.2913 149.467 18.4073 149.197 19.0649C148.868 19.8577 148.249 20.2639 147.302 20.2639C146.025 20.2639 145.406 19.6644 145.406 18.504V15.2552C145.406 14.0755 146.025 13.4953 147.302 13.4953C148.249 13.4953 148.868 13.9015 149.197 14.6943C149.467 15.3712 149.758 15.5259 150.434 15.2745L151.923 14.7717C152.581 14.5203 152.736 14.2495 152.542 13.5727C151.885 11.6968 150.106 10.4785 147.437 10.4785C143.705 10.4785 141.887 12.2577 141.887 15.4099V18.3493Z" fill="white"/>
<path d="M155.212 5.70312C154.555 5.70312 154.342 5.91585 154.342 6.55402V22.0636C154.342 22.7211 154.555 22.9338 155.212 22.9338H157.011C157.649 22.9338 157.861 22.7211 157.861 22.0636V13.8447L157.958 13.8253C158.21 13.748 158.886 13.6706 159.563 13.6706C160.898 13.6706 161.555 14.2508 161.555 15.4111V22.0636C161.555 22.7211 161.748 22.9338 162.406 22.9338H164.224C164.862 22.9338 165.055 22.7211 165.055 22.0636V15.2951C165.055 12.0849 163.392 10.4798 160.027 10.4798C159.389 10.4798 158.635 10.5184 158.19 10.5958L157.861 10.6345V6.55402C157.861 5.91585 157.649 5.70312 157.011 5.70312H155.212Z" fill="white"/>
<path d="M167.183 12.8958C166.913 13.476 167.067 13.8628 167.647 14.1335L168.924 14.6557C169.581 14.9264 169.717 14.8297 170.123 14.2882C170.568 13.7081 171.186 13.4373 172.057 13.4373C173.236 13.4373 173.855 14.0175 173.855 15.1585V15.6613C173.352 15.6419 172.791 15.6226 172.192 15.6226C168.286 15.6226 166.758 16.5702 166.758 19.4323C166.758 20.7667 167.164 21.7143 167.937 22.3524C168.692 22.9713 170.065 23.2807 172.095 23.2807C174.106 23.2807 175.576 23.068 176.504 22.6618C177.181 22.3718 177.355 22.1204 177.355 21.3081V15.3905C177.355 12.103 175.634 10.4785 172.173 10.4785C169.697 10.4785 168.053 11.2907 167.183 12.8958ZM173.855 20.3025C173.855 20.3799 173.797 20.4379 173.681 20.4572C173.294 20.5346 172.656 20.5539 171.844 20.5539C170.626 20.5539 170.277 20.1672 170.277 19.413C170.277 18.6974 170.664 18.2913 171.883 18.2913C172.115 18.2913 172.482 18.2913 172.946 18.33C173.41 18.3493 173.7 18.3493 173.855 18.3493V20.3025Z" fill="white"/>
<path d="M180.411 11.3101C179.676 11.6195 179.482 11.8902 179.482 12.6638V22.0623C179.482 22.7199 179.695 22.9326 180.353 22.9326H182.132C182.789 22.9326 183.002 22.7199 183.002 22.0623V13.9595C183.002 13.9015 183.021 13.8628 183.079 13.8628C183.563 13.7274 184.104 13.6694 184.704 13.6694C186.038 13.6694 186.676 14.2495 186.676 15.4099V22.0623C186.676 22.7199 186.889 22.9326 187.547 22.9326H189.364C189.983 22.9326 190.196 22.7199 190.196 22.0623V15.2938C190.196 12.0836 188.514 10.4785 185.168 10.4785C183.35 10.4785 181.764 10.7493 180.411 11.3101Z" fill="white"/>
<path d="M194.353 8.02344C193.715 8.02344 193.483 8.23616 193.483 8.89368V10.8275H192.245C191.607 10.8275 191.395 11.0403 191.395 11.6784V13.0902C191.395 13.7283 191.607 13.9411 192.245 13.9411H193.483V18.0022C193.483 20.0327 193.928 21.4251 194.779 22.1986C195.649 22.9529 197.119 23.3396 199.149 23.2623C199.807 23.2429 200 23.0495 200 22.3727V20.903C200 20.2261 199.807 20.0327 199.149 20.0327C197.544 20.0327 197.003 19.6073 197.003 17.8475V13.9411H199.169C199.807 13.9411 200 13.7283 200 13.0902V11.6784C200 11.0403 199.807 10.8275 199.169 10.8275H197.003V8.89368C197.003 8.23616 196.79 8.02344 196.171 8.02344H194.353Z" fill="white"/>
<path d="M18.7778 2.14659C21.0984 0.792883 23.8058 0 26.6873 0C30.439 0 33.8813 1.31503 36.5693 3.51963C39.2187 5.68555 41.1332 8.72172 41.8874 12.1833C44.1501 12.4541 46.1613 13.5564 47.631 15.1615C49.1588 16.8246 50.087 19.0485 50.087 21.4852C50.087 24.0959 49.0427 26.4359 47.3409 28.1377C45.6391 29.8395 43.2798 30.8838 40.6885 30.8838H11.6032C8.4123 30.8838 5.49217 29.5881 3.4036 27.4802C1.29569 25.3916 0 22.4908 0 19.2806C0 18.6231 0.0580159 17.9849 0.154709 17.3661C0.618836 14.562 2.06923 12.1447 4.11913 10.4235C6.14968 8.68304 8.77973 7.65809 11.6032 7.65809C12.1253 7.65809 12.6668 7.69677 13.2083 7.77412C14.5426 5.45349 16.4572 3.51963 18.7778 2.14659ZM10.907 11.9899L11.5065 12.2027L11.7192 11.3131C9.55328 11.3324 7.58074 11.9319 6.13034 13.1503C4.67995 14.3879 3.73235 16.2831 3.63566 18.8552V19.2806C3.63566 21.4852 4.52524 23.5158 5.97563 24.9855C7.42603 26.4359 9.41791 27.3448 11.6032 27.3448L16.9213 27.3641C16.0704 26.668 15.2968 25.8944 14.62 25.0629C13.6531 23.9025 12.8795 22.6068 12.3187 21.2338C12.2413 21.0211 12.2027 20.8277 12.222 20.6536C12.2413 20.4796 12.3187 20.3249 12.4347 20.2089C12.5508 20.0928 12.7055 20.0155 12.8989 20.0155C13.0536 19.9961 13.247 20.0348 13.4597 20.1315C15.6449 21.1564 17.6562 21.6593 19.648 21.6012C21.6399 21.5239 23.6705 20.847 25.9331 19.532C27.4222 18.6618 28.9112 17.6755 30.3423 16.7279C33.2818 14.7747 36.0085 12.9762 38.4065 12.3767C37.7296 9.84336 36.2599 7.63875 34.268 6.05299C32.1988 4.38987 29.5494 3.4036 26.6873 3.4036C23.7091 3.4036 20.9824 4.48656 18.8745 6.24637C16.8633 7.94817 15.3935 10.3075 14.8521 12.9762L15.3742 13.0149C15.5096 13.0342 15.6256 13.0922 15.703 13.1503C15.7997 13.2276 15.8577 13.305 15.877 13.3823L15.8963 13.4017C15.9157 13.479 15.935 13.5757 15.9157 13.6724C15.9157 13.7884 15.8577 13.9045 15.7803 14.0012L12.5894 17.8495C12.4541 18.0043 12.28 18.1009 12.1253 18.1396C12.0093 18.1783 11.8933 18.1783 11.7966 18.159C11.6805 18.1203 11.5838 18.0816 11.5065 18.0043C11.3711 17.9076 11.2744 17.7529 11.2357 17.5595L10.0561 12.7828C10.0174 12.6088 10.0174 12.4541 10.0754 12.338C10.0948 12.2413 10.1528 12.164 10.2301 12.0866C10.3075 12.0286 10.4042 11.9706 10.5009 11.9513C10.6169 11.9126 10.7716 11.9319 10.907 11.9899ZM40.4371 23.9605L39.8376 23.6125C39.2961 24.4827 38.6772 25.2949 37.981 26.0491C37.5169 26.5132 37.0335 26.958 36.5307 27.3641H40.6885C42.3129 27.3641 43.7826 26.7066 44.8463 25.643C45.9099 24.5794 46.5674 23.1096 46.5674 21.4852C46.5674 20.0541 46.0452 18.7391 45.1944 17.7142C44.3241 16.6892 43.1058 15.9544 41.7134 15.703C38.3098 15.3162 34.9449 17.6948 31.4446 20.1702C27.9056 22.6842 24.2313 25.2949 20.0541 25.4496L20.3636 25.643C23.013 27.2675 26.0298 27.7316 28.8339 27.2288C31.6573 26.726 34.268 25.2562 36.1052 23.0516C36.3373 22.7809 36.5307 22.5102 36.7434 22.2201L36.2406 22.0654C36.1245 22.0267 36.0085 21.9493 35.9312 21.8526C35.8731 21.7753 35.8345 21.6979 35.8345 21.6012C35.8151 21.5045 35.8151 21.4079 35.8538 21.3112C35.8731 21.2145 35.9505 21.0984 36.0665 21.0211L39.9342 17.8882C40.089 17.7529 40.2823 17.6948 40.4564 17.6755C40.5531 17.6755 40.6691 17.6948 40.7658 17.7335C40.8625 17.7722 40.9592 17.8495 41.0365 17.9462C41.1332 18.0816 41.2106 18.2363 41.2106 18.4297L41.4233 23.3611C41.4233 23.5158 41.3846 23.6705 41.3266 23.7865C41.2686 23.8639 41.1913 23.9412 41.1139 23.9799C41.0365 24.0379 40.9399 24.0766 40.8432 24.0766C40.7078 24.0766 40.5724 24.0379 40.4371 23.9605Z" fill="white"/>
<path fill-rule="evenodd" clip-rule="evenodd" d="M38.8706 15.9351C34.094 17.2501 27.1514 25.4497 20.0542 25.4497C19.3 25.0243 18.1783 24.154 17.9269 23.9413C17.6755 23.7286 17.8302 23.4578 18.1977 23.6319C18.8938 23.9606 23.8059 24.2314 30.0522 19.6481C32.721 17.6756 36.9174 14.388 40.6305 14.2526C43.6086 14.156 46.5674 16.7087 46.5674 21.4853C46.5674 17.3468 42.603 14.8908 38.8706 15.9351Z" fill="url(#paint0_linear)"/>
<defs>
<linearGradient id="paint0_linear" x1="34.268" y1="20.8858" x2="21.9687" y2="16.3992" gradientUnits="userSpaceOnUse">
<stop stop-color="#DEDEDE"/>
<stop offset="1" stop-color="#FEFEFE"/>
</linearGradient>
</defs>
</svg>
