<svg width="36" height="24" viewBox="0 0 36 24" fill="none" xmlns="http://www.w3.org/2000/svg">
<path d="M13.4965 1.66813C15.1645 0.616155 17.1104 0 19.1815 0C21.878 0 24.3521 1.02192 26.2842 2.73513C28.1884 4.41828 29.5645 6.77771 30.1066 9.46775C31.7328 9.67815 33.1784 10.5348 34.2347 11.7821C35.3328 13.0745 36 14.8028 36 16.6963C36 18.7251 35.2494 20.5435 34.0263 21.866C32.8031 23.1885 31.1073 24 29.2448 24H8.33977C6.04633 24 3.94749 22.9931 2.44633 21.355C0.931274 19.732 0 17.4778 0 14.9831C0 14.4721 0.0416988 13.9762 0.111197 13.4953C0.444788 11.3162 1.48726 9.4377 2.96062 8.10019C4.42008 6.74765 6.31042 5.95116 8.33977 5.95116C8.71506 5.95116 9.10425 5.98121 9.49344 6.04133C10.4525 4.23795 11.8286 2.73513 13.4965 1.66813ZM7.83938 9.31747L8.27027 9.48278L8.42317 8.79148C6.86641 8.80651 5.44865 9.27239 4.40618 10.2192C3.36371 11.181 2.68263 12.6537 2.61313 14.6525V14.9831C2.61313 16.6963 3.25251 18.2743 4.29498 19.4164C5.33745 20.5435 6.76911 21.2498 8.33977 21.2498L12.1622 21.2649C11.5506 20.7239 10.9946 20.1227 10.5081 19.4765C9.81313 18.5748 9.25714 17.5679 8.85405 16.5009C8.79846 16.3356 8.77066 16.1853 8.78456 16.0501C8.79846 15.9148 8.85405 15.7946 8.93745 15.7044C9.02085 15.6143 9.13205 15.5542 9.27104 15.5542C9.38224 15.5391 9.52124 15.5692 9.67413 15.6443C11.2448 16.4408 12.6903 16.8316 14.122 16.7865C15.5537 16.7264 17.0131 16.2004 18.6394 15.1785C19.7097 14.5022 20.7799 13.7358 21.8085 12.9994C23.9212 11.4815 25.8811 10.0839 27.6046 9.61803C27.1181 7.64934 26.0618 5.93613 24.6301 4.70382C23.1429 3.4114 21.2386 2.64496 19.1815 2.64496C17.0409 2.64496 15.0811 3.48654 13.566 4.8541C12.1205 6.17658 11.0641 8.01002 10.6749 10.0839L11.0502 10.114C11.1475 10.129 11.2309 10.1741 11.2865 10.2192C11.356 10.2793 11.3977 10.3394 11.4116 10.3995L11.4255 10.4145C11.4394 10.4746 11.4533 10.5498 11.4394 10.6249C11.4394 10.7151 11.3977 10.8053 11.3421 10.8804L9.04865 13.871C8.95135 13.9912 8.82625 14.0664 8.71506 14.0964C8.63166 14.1265 8.54826 14.1265 8.47876 14.1115C8.39537 14.0814 8.32587 14.0513 8.27027 13.9912C8.17297 13.9161 8.10347 13.7959 8.07568 13.6456L7.2278 9.93363C7.2 9.79837 7.2 9.67815 7.2417 9.58798C7.2556 9.51284 7.2973 9.45272 7.3529 9.39261C7.40849 9.34753 7.47799 9.30244 7.54749 9.28741C7.63089 9.25736 7.74208 9.27239 7.83938 9.31747ZM29.0641 18.6199L28.6332 18.3494C28.244 19.0257 27.7992 19.6569 27.2988 20.243C26.9653 20.6036 26.6178 20.9493 26.2564 21.2649H29.2448C30.4124 21.2649 31.4687 20.7539 32.2332 19.9274C32.9977 19.1008 33.4703 17.9587 33.4703 16.6963C33.4703 15.5842 33.095 14.5623 32.4834 13.7658C31.8579 12.9693 30.9822 12.3982 29.9815 12.2029C27.5351 11.9023 25.1166 13.7508 22.6008 15.6744C20.0571 17.6281 17.4162 19.6569 14.4139 19.7771L14.6363 19.9274C16.5405 21.1897 18.7089 21.5504 20.7243 21.1597C22.7537 20.7689 24.6301 19.6268 25.9506 17.9136C26.1174 17.7032 26.2564 17.4928 26.4093 17.2674L26.0479 17.1472C25.9645 17.1171 25.8811 17.057 25.8255 16.9818C25.7838 16.9217 25.756 16.8616 25.756 16.7865C25.7421 16.7113 25.7421 16.6362 25.7699 16.5611C25.7838 16.4859 25.8394 16.3957 25.9228 16.3356L28.7027 13.9011C28.8139 13.7959 28.9529 13.7508 29.078 13.7358C29.1475 13.7358 29.2309 13.7508 29.3004 13.7808C29.3699 13.8109 29.4394 13.871 29.495 13.9461C29.5645 14.0513 29.6201 14.1716 29.6201 14.3219L29.773 18.154C29.773 18.2743 29.7452 18.3945 29.7035 18.4847C29.6618 18.5448 29.6062 18.6049 29.5506 18.6349C29.495 18.68 29.4255 18.7101 29.356 18.7101C29.2587 18.7101 29.1614 18.68 29.0641 18.6199Z" fill="white"/>
</svg>
