<svg width="200" height="31" viewBox="0 0 200 31" fill="none" xmlns="http://www.w3.org/2000/svg">
<path d="M60.7227 22.0047C60.7227 22.6816 60.9354 22.933 61.6509 22.933H63.5848C64.2616 22.933 64.513 22.6816 64.513 22.0047V7.32669C64.513 6.64984 64.2616 6.39844 63.5848 6.39844H61.6509C60.9354 6.39844 60.7227 6.64984 60.7227 7.32669V22.0047Z" fill="#0E6CDD"/>
<path d="M67.2013 6.39844C66.4664 6.39844 66.2344 6.6305 66.2344 7.34603V8.91246C66.2344 9.62799 66.4664 9.84071 67.2013 9.84071H70.8563V21.9854C70.8563 22.7009 71.069 22.933 71.7846 22.933H73.6797C74.3953 22.933 74.6273 22.7009 74.6273 21.9854V9.84071H78.263C78.9785 9.84071 79.2106 9.62799 79.2106 8.91246V7.34603C79.2106 6.6305 78.9785 6.39844 78.263 6.39844H67.2013Z" fill="#0E6CDD"/>
<path d="M81.8988 6.39844C81.1832 6.39844 80.9512 6.6305 80.9512 7.34603V21.9854C80.9512 22.7009 81.1832 22.933 81.8988 22.933H90.7559C91.4714 22.933 91.7034 22.7009 91.7034 21.9854V20.4189C91.7034 19.7421 91.4327 19.4713 90.7559 19.4713H84.7415V7.34603C84.7415 6.6305 84.5095 6.39844 83.7746 6.39844H81.8988Z" fill="#0E6CDD"/>
<path d="M116.341 6.39844C115.606 6.39844 115.432 6.49513 115.084 7.11397L110.791 14.9654L106.517 7.09463C106.169 6.53381 105.937 6.39844 105.202 6.39844H103.693C102.959 6.39844 102.727 6.64984 102.727 7.32669V22.0047C102.727 22.6816 102.959 22.933 103.693 22.933H105.337C106.053 22.933 106.266 22.6816 106.266 22.0047V16.7446C106.266 15.2168 106.033 13.457 105.569 11.4652H105.782C106.266 13.2443 106.826 14.6947 107.503 15.797L109.186 18.7558C109.456 19.2973 109.669 19.4327 110.249 19.4327H111.332C111.893 19.4327 112.086 19.2586 112.377 18.7558L114.02 15.797C114.794 14.4626 115.393 13.0122 115.877 11.4652H116.07C115.567 13.4764 115.316 15.2168 115.316 16.7059V22.0047C115.316 22.6816 115.509 22.933 116.244 22.933H117.985C118.72 22.933 118.952 22.7202 118.952 22.0047V7.32669C118.952 6.61116 118.72 6.39844 117.985 6.39844H116.341Z" fill="#0E6CDD"/>
<path d="M121.041 18.1178C121.041 21.2506 122.781 23.2812 126.611 23.2812C129.125 23.2812 130.826 22.5656 131.735 21.1152C132.083 20.5157 131.967 20.0516 131.368 19.7422L130.227 19.162C129.55 18.8139 129.26 18.9106 128.873 19.4715C128.409 20.0903 127.655 20.3997 126.649 20.3997C125.257 20.3997 124.561 19.7809 124.561 18.5625V17.963H131.039C131.851 17.963 132.238 17.5763 132.238 16.8027V15.391C132.238 12.5289 130.343 10.479 126.63 10.479C123.014 10.479 121.041 12.2968 121.041 15.6424V18.1178ZM128.699 15.4297H124.561V15.0623C124.561 13.8633 125.257 13.2638 126.63 13.2638C128.003 13.2638 128.699 13.8633 128.699 15.0623V15.4297Z" fill="#0E6CDD"/>
<path d="M139.45 10.479C137.516 10.537 136.027 10.7691 134.963 11.1945C134.229 11.504 134.035 11.7747 134.035 12.5482V22.0628C134.035 22.7203 134.248 22.9331 134.905 22.9331H136.723C137.342 22.9331 137.555 22.7203 137.555 22.0628V13.9406C137.555 13.8439 137.593 13.8052 137.69 13.7859C138.193 13.6699 138.715 13.6119 139.353 13.6119H140.204C140.842 13.6119 141.074 13.3991 141.074 12.7803V11.3299C141.074 10.6724 140.842 10.479 140.204 10.479H139.45Z" fill="#0E6CDD"/>
<path d="M141.887 18.3498C141.887 21.6374 143.666 23.2812 147.205 23.2812C149.893 23.2812 151.691 22.2562 152.562 20.2063C152.813 19.5875 152.6 19.1814 151.943 18.9687L150.434 18.5045C149.758 18.2918 149.467 18.4078 149.197 19.0654C148.868 19.8582 148.249 20.2643 147.302 20.2643C146.025 20.2643 145.406 19.6648 145.406 18.5045V15.2556C145.406 14.076 146.025 13.4958 147.302 13.4958C148.249 13.4958 148.868 13.9019 149.197 14.6948C149.467 15.3717 149.758 15.5264 150.434 15.275L151.923 14.7722C152.581 14.5208 152.736 14.25 152.542 13.5732C151.885 11.6973 150.106 10.479 147.437 10.479C143.705 10.479 141.887 12.2582 141.887 15.4104V18.3498Z" fill="#0E6CDD"/>
<path d="M155.212 5.70215C154.555 5.70215 154.342 5.91487 154.342 6.55305V22.0626C154.342 22.7201 154.555 22.9329 155.212 22.9329H157.011C157.649 22.9329 157.861 22.7201 157.861 22.0626V13.8437L157.958 13.8244C158.21 13.747 158.886 13.6697 159.563 13.6697C160.898 13.6697 161.555 14.2498 161.555 15.4101V22.0626C161.555 22.7201 161.748 22.9329 162.406 22.9329H164.224C164.862 22.9329 165.055 22.7201 165.055 22.0626V15.2941C165.055 12.0839 163.392 10.4788 160.027 10.4788C159.389 10.4788 158.635 10.5175 158.19 10.5948L157.861 10.6335V6.55305C157.861 5.91487 157.649 5.70215 157.011 5.70215H155.212Z" fill="#0E6CDD"/>
<path d="M167.183 12.8963C166.913 13.4765 167.067 13.8633 167.647 14.134L168.924 14.6561C169.581 14.9269 169.717 14.8302 170.123 14.2887C170.568 13.7086 171.186 13.4378 172.057 13.4378C173.236 13.4378 173.855 14.018 173.855 15.1589V15.6618C173.352 15.6424 172.791 15.6231 172.192 15.6231C168.286 15.6231 166.758 16.5707 166.758 19.4328C166.758 20.7671 167.164 21.7147 167.937 22.3529C168.692 22.9718 170.065 23.2812 172.095 23.2812C174.106 23.2812 175.576 23.0684 176.504 22.6623C177.181 22.3723 177.355 22.1209 177.355 21.3086V15.391C177.355 12.1034 175.634 10.479 172.173 10.479C169.697 10.479 168.053 11.2912 167.183 12.8963ZM173.855 20.303C173.855 20.3804 173.797 20.4384 173.681 20.4577C173.294 20.5351 172.656 20.5544 171.844 20.5544C170.626 20.5544 170.277 20.1677 170.277 19.4134C170.277 18.6979 170.664 18.2918 171.883 18.2918C172.115 18.2918 172.482 18.2918 172.946 18.3305C173.41 18.3498 173.7 18.3498 173.855 18.3498V20.303Z" fill="#0E6CDD"/>
<path d="M180.411 11.3106C179.676 11.62 179.482 11.8907 179.482 12.6643V22.0628C179.482 22.7203 179.695 22.9331 180.353 22.9331H182.132C182.789 22.9331 183.002 22.7203 183.002 22.0628V13.96C183.002 13.9019 183.021 13.8633 183.079 13.8633C183.563 13.7279 184.104 13.6699 184.704 13.6699C186.038 13.6699 186.676 14.25 186.676 15.4104V22.0628C186.676 22.7203 186.889 22.9331 187.547 22.9331H189.364C189.983 22.9331 190.196 22.7203 190.196 22.0628V15.2943C190.196 12.0841 188.514 10.479 185.168 10.479C183.35 10.479 181.764 10.7497 180.411 11.3106Z" fill="#0E6CDD"/>
<path d="M194.353 8.02295C193.715 8.02295 193.483 8.23567 193.483 8.89319V10.827H192.245C191.607 10.827 191.395 11.0398 191.395 11.6779V13.0897C191.395 13.7278 191.607 13.9406 192.245 13.9406H193.483V18.0017C193.483 20.0322 193.928 21.4246 194.779 22.1982C195.649 22.9524 197.119 23.3391 199.149 23.2618C199.807 23.2424 200 23.0491 200 22.3722V20.9025C200 20.2256 199.807 20.0322 199.149 20.0322C197.544 20.0322 197.003 19.6068 197.003 17.847V13.9406H199.169C199.807 13.9406 200 13.7278 200 13.0897V11.6779C200 11.0398 199.807 10.827 199.169 10.827H197.003V8.89319C197.003 8.23567 196.79 8.02295 196.171 8.02295H194.353Z" fill="#0E6CDD"/>
<path d="M18.7778 2.14659C21.0984 0.792883 23.8058 0 26.6873 0C30.439 0 33.8813 1.31503 36.5693 3.51963C39.2187 5.68555 41.1332 8.72172 41.8874 12.1833C44.1501 12.4541 46.1613 13.5564 47.631 15.1615C49.1588 16.8246 50.087 19.0485 50.087 21.4852C50.087 24.0959 49.0427 26.4359 47.3409 28.1377C45.6391 29.8395 43.2798 30.8838 40.6885 30.8838H11.6032C8.4123 30.8838 5.49217 29.5881 3.4036 27.4802C1.29569 25.3916 0 22.4908 0 19.2806C0 18.6231 0.0580159 17.9849 0.154709 17.3661C0.618836 14.562 2.06923 12.1447 4.11913 10.4235C6.14968 8.68304 8.77973 7.65809 11.6032 7.65809C12.1253 7.65809 12.6668 7.69677 13.2083 7.77412C14.5426 5.45349 16.4572 3.51963 18.7778 2.14659ZM10.907 11.9899L11.5065 12.2027L11.7192 11.3131C9.55328 11.3324 7.58074 11.9319 6.13034 13.1503C4.67995 14.3879 3.73235 16.2831 3.63566 18.8552V19.2806C3.63566 21.4852 4.52524 23.5158 5.97563 24.9855C7.42603 26.4359 9.41791 27.3448 11.6032 27.3448L16.9213 27.3641C16.0704 26.668 15.2968 25.8944 14.62 25.0629C13.6531 23.9025 12.8795 22.6068 12.3187 21.2338C12.2413 21.0211 12.2027 20.8277 12.222 20.6536C12.2413 20.4796 12.3187 20.3249 12.4347 20.2089C12.5508 20.0928 12.7055 20.0155 12.8989 20.0155C13.0536 19.9961 13.247 20.0348 13.4597 20.1315C15.6449 21.1564 17.6562 21.6593 19.648 21.6012C21.6399 21.5239 23.6705 20.847 25.9331 19.532C27.4222 18.6618 28.9112 17.6755 30.3423 16.7279C33.2818 14.7747 36.0085 12.9762 38.4065 12.3767C37.7296 9.84336 36.2599 7.63875 34.268 6.05299C32.1988 4.38987 29.5494 3.4036 26.6873 3.4036C23.7091 3.4036 20.9824 4.48656 18.8745 6.24637C16.8633 7.94817 15.3935 10.3075 14.8521 12.9762L15.3742 13.0149C15.5096 13.0342 15.6256 13.0922 15.703 13.1503C15.7997 13.2276 15.8577 13.305 15.877 13.3823L15.8963 13.4017C15.9157 13.479 15.935 13.5757 15.9157 13.6724C15.9157 13.7884 15.8577 13.9045 15.7803 14.0012L12.5894 17.8495C12.4541 18.0043 12.28 18.1009 12.1253 18.1396C12.0093 18.1783 11.8933 18.1783 11.7966 18.159C11.6805 18.1203 11.5838 18.0816 11.5065 18.0043C11.3711 17.9076 11.2744 17.7529 11.2357 17.5595L10.0561 12.7828C10.0174 12.6088 10.0174 12.4541 10.0754 12.338C10.0948 12.2413 10.1528 12.164 10.2301 12.0866C10.3075 12.0286 10.4042 11.9706 10.5009 11.9513C10.6169 11.9126 10.7716 11.9319 10.907 11.9899ZM40.4371 23.9605L39.8376 23.6125C39.2961 24.4827 38.6772 25.2949 37.981 26.0491C37.5169 26.5132 37.0335 26.958 36.5307 27.3641H40.6885C42.3129 27.3641 43.7826 26.7066 44.8463 25.643C45.9099 24.5794 46.5674 23.1096 46.5674 21.4852C46.5674 20.0541 46.0452 18.7391 45.1944 17.7142C44.3241 16.6892 43.1058 15.9544 41.7134 15.703C38.3098 15.3162 34.9449 17.6948 31.4446 20.1702C27.9056 22.6842 24.2313 25.2949 20.0541 25.4496L20.3636 25.643C23.013 27.2675 26.0298 27.7316 28.8339 27.2288C31.6573 26.726 34.268 25.2562 36.1052 23.0516C36.3373 22.7809 36.5307 22.5102 36.7434 22.2201L36.2406 22.0654C36.1245 22.0267 36.0085 21.9493 35.9312 21.8526C35.8731 21.7753 35.8345 21.6979 35.8345 21.6012C35.8151 21.5045 35.8151 21.4079 35.8538 21.3112C35.8731 21.2145 35.9505 21.0984 36.0665 21.0211L39.9342 17.8882C40.089 17.7529 40.2823 17.6948 40.4564 17.6755C40.5531 17.6755 40.6691 17.6948 40.7658 17.7335C40.8625 17.7722 40.9592 17.8495 41.0365 17.9462C41.1332 18.0816 41.2106 18.2363 41.2106 18.4297L41.4233 23.3611C41.4233 23.5158 41.3846 23.6705 41.3266 23.7865C41.2686 23.8639 41.1913 23.9412 41.1139 23.9799C41.0365 24.0379 40.9399 24.0766 40.8432 24.0766C40.7078 24.0766 40.5724 24.0379 40.4371 23.9605Z" fill="#0E6CDD"/>
</svg>
