<svg width="146" height="32" viewBox="0 0 146 32" fill="none" xmlns="http://www.w3.org/2000/svg">
<path d="M72.799 10.1053C74.5532 10.1053 76.3074 10.6911 77.4768 11.8627L79.962 9.51945C77.9154 7.61556 75.4303 6.59039 72.799 6.59039C65.636 6.59039 62.42 11.7162 62.42 16.6957C62.42 21.6751 65.4899 26.6545 72.799 26.6545C75.5765 26.6545 78.2078 25.7757 80.2543 23.8719L77.7692 21.3822C76.4536 22.7002 74.5532 23.286 72.799 23.286C67.975 23.286 66.0746 19.9176 66.0746 16.8421C66.0746 13.4737 68.1211 10.1053 72.799 10.1053ZM105.398 13.3272C105.398 9.95881 102.913 7.02975 98.381 7.02975C95.3111 7.02975 92.0951 7.02975 89.0253 7.02975V26.2151H92.6799V19.7712H96.1882L101.889 26.2151H106.275V25.9222L100.281 19.3318C104.228 18.5995 105.398 15.9634 105.398 13.3272ZM92.6799 16.5492V10.3982H98.381C100.72 10.3982 101.743 11.8627 101.743 13.4737C101.743 14.9382 100.72 16.5492 98.381 16.5492H92.6799ZM9.79424 12.595V12.4485C9.64806 12.1556 9.50188 12.1556 9.20951 12.0092C8.62478 11.8627 8.04005 11.7162 7.30914 11.7162C6.43204 11.7162 5.70113 11.8627 4.97021 12.1556C4.38548 12.4485 4.09312 12.7414 3.50839 13.3272V11.8627H0V26.2151H3.65457V17.5744C3.65457 15.9634 4.67785 14.9382 6.13967 14.9382C6.72441 14.9382 7.16295 15.0847 7.74768 15.524H7.89387C8.18623 14.3524 8.91715 13.3272 9.79424 12.595ZM36.2533 11.7162C33.9144 11.7162 32.3064 12.1556 32.014 12.3021L31.8678 12.4485C32.1602 13.6201 32.8911 14.7918 33.3297 15.3776C33.3297 15.524 33.4758 15.524 33.622 15.3776C34.6453 14.7918 35.23 14.7918 36.3995 14.7918C38.2999 14.7918 39.177 15.3776 39.177 16.9886V17.7208H35.6686C32.5987 17.7208 30.6984 19.3318 30.6984 21.968C30.6984 24.7506 32.5987 26.3616 35.6686 26.3616C36.5457 26.3616 37.1304 26.2151 37.7151 26.0686C38.2999 25.9222 38.5922 25.6293 39.177 25.0435V26.2151H42.6854V16.8421C42.9777 13.4737 40.9312 11.7162 36.2533 11.7162ZM39.3232 20.9428C39.3232 22.7002 38.5922 23.4325 36.6919 23.4325C35.0839 23.4325 34.3529 22.8467 34.3529 21.8215C34.3529 20.7963 35.0839 20.2105 36.3995 20.2105H39.3232V20.9428ZM29.3827 23.286C29.3827 23.1396 29.2365 23.1396 29.2365 23.1396H28.6518C27.7747 23.1396 27.3362 22.7002 27.3362 21.8215V14.9382H30.9907C31.1369 14.9382 31.1369 14.7918 31.1369 14.7918C30.5522 13.6201 30.2598 12.595 30.1136 12.3021C30.1136 12.3021 30.1136 12.1556 29.9675 12.1556H27.3362V8.05492H23.6816V12.3021H21.0503C20.9041 12.3021 20.9041 12.4485 20.9041 12.4485C21.1965 12.8879 21.9274 13.7666 22.2198 14.9382C22.2198 14.9382 22.2198 15.0847 22.366 15.0847H23.6816V22.2609C23.6816 24.7506 25.4358 26.3616 27.9209 26.3616C29.2365 26.3616 30.2598 26.0686 30.5522 25.9222C30.6984 25.9222 30.6984 25.7757 30.5522 25.6293C30.406 25.3364 29.6751 24.4577 29.3827 23.286ZM15.203 11.7162C11.2561 11.7162 8.77096 14.4989 8.77096 19.0389C8.77096 23.8719 11.1099 26.3616 15.6416 26.3616C16.811 26.3616 17.8343 26.2151 18.7114 25.7757C19.5885 25.3364 20.1732 25.0435 21.1965 24.1648V24.0183L19.0038 22.1144H18.8576C18.2728 22.7002 17.9805 22.8467 17.3957 23.1396C16.9572 23.286 16.2263 23.4325 15.6416 23.4325C13.4488 23.4325 12.4255 22.4073 12.2793 20.2105H21.0503C21.3427 20.2105 21.4889 20.0641 21.4889 19.7712V18.5995C21.635 14.4989 19.1499 11.7162 15.203 11.7162ZM12.4255 17.7208C12.5717 15.8169 13.595 14.6453 15.203 14.6453C16.9572 14.6453 17.8343 15.6705 17.9805 17.7208H12.4255ZM45.0243 26.2151H48.6788V11.8627H45.0243V26.2151ZM46.7785 5.56522C45.4628 5.56522 44.4395 6.59039 44.4395 7.76201C44.4395 8.93364 45.4628 9.95881 46.7785 9.95881C48.0941 9.95881 49.1174 8.93364 49.1174 7.61556C49.1174 6.59039 48.0941 5.56522 46.7785 5.56522ZM50.8716 26.2151H54.5262V6.59039H50.8716V26.2151ZM78.0616 28.2654C77.7692 28.119 77.4768 28.4119 77.623 28.7048L78.5001 29.73C76.5998 30.4622 74.6994 30.9016 72.6528 30.9016C64.6128 30.9016 58.0345 24.4577 58.0345 16.6957C58.0345 8.93364 64.6128 2.4897 72.6528 2.4897C74.5532 2.4897 76.4536 2.92906 78.2078 3.51487C78.3539 3.51487 78.6463 3.51487 78.6463 3.36842C78.7925 3.22197 78.6463 2.92906 78.5001 2.92906C76.5998 2.1968 74.6994 1.75744 72.6528 1.75744C64.1742 1.75744 57.3036 8.49428 57.3036 16.6957C57.3036 24.897 64.1742 31.6339 72.6528 31.6339C74.6994 31.6339 76.7459 31.1945 78.7925 30.4622L78.9387 31.7803C79.0849 32.0732 79.3772 32.0732 79.5234 31.7803L80.2543 29.73C80.2543 29.5835 80.2543 29.4371 80.1081 29.2906L78.0616 28.2654ZM112.561 14.7918C112.415 14.6453 111.976 14.6453 111.976 14.9382L112.268 16.2563H109.637C109.637 16.2563 109.491 16.2563 109.491 16.1098V3.51487C109.491 3.07551 109.199 2.78261 108.76 2.78261H107.152C107.152 2.78261 107.006 2.78261 107.006 2.63616V0.878719C107.006 0.732265 107.152 0.585812 107.298 0.585812H124.986C125.132 0.585812 125.279 0.732265 125.279 0.878719V9.51945L123.963 9.22654C123.671 9.22654 123.524 9.51945 123.671 9.81236L125.279 11.2769C125.425 11.4233 125.571 11.4233 125.717 11.2769L127.325 9.81236C127.471 9.6659 127.471 9.22654 127.033 9.22654L125.717 9.51945V0.732265C125.717 0.292906 125.425 0 124.986 0H107.006C106.567 0 106.275 0.292906 106.275 0.732265V2.63616C106.275 2.63616 106.275 2.78261 106.129 2.78261H83.0318C82.5932 2.78261 82.3009 3.07551 82.3009 3.51487V16.1098C82.3009 16.1098 82.3009 16.2563 82.1547 16.2563H73.8223C73.6761 15.6705 73.0914 15.3776 72.5066 15.3776C71.7757 15.3776 71.191 15.9634 71.191 16.6957C71.191 17.4279 71.7757 18.0137 72.5066 18.0137C73.0914 18.0137 73.6761 17.5744 73.8223 17.135H83.6165C83.6165 17.135 83.7627 17.135 83.7627 17.2815V30.0229C83.7627 30.4622 84.0551 30.7551 84.4936 30.7551H109.929C110.368 30.7551 110.66 30.4622 110.66 30.0229V17.2815C110.66 17.2815 110.66 17.135 110.807 17.135H112.268L111.976 18.4531C111.976 18.746 112.415 18.8924 112.561 18.5995L114.023 16.9886C114.169 16.8421 114.169 16.6957 114.023 16.5492L112.561 14.7918ZM110.076 29.73C110.076 29.8764 109.929 30.0229 109.783 30.0229H84.786C84.6398 30.0229 84.4936 29.8764 84.4936 29.73V17.135C84.4936 17.135 84.4936 16.9886 84.6398 16.9886H86.394L86.1016 18.3066C86.1016 18.5995 86.5402 18.746 86.6864 18.4531L88.1482 16.8421C88.2944 16.6957 88.2944 16.5492 88.1482 16.4027L86.6864 14.7918C86.5402 14.6453 86.1016 14.6453 86.1016 14.9382L86.394 16.2563H83.178C83.178 16.2563 83.0318 16.2563 83.0318 16.1098V3.66133C83.0318 3.51487 83.178 3.36842 83.178 3.36842H108.321C108.614 3.36842 108.614 3.51487 108.614 3.66133V16.1098C108.614 16.1098 108.614 16.2563 108.468 16.2563H105.69C105.69 16.2563 105.69 16.4027 105.544 16.5492C105.398 16.6957 105.252 16.8421 105.252 16.8421H109.783C109.783 16.8421 109.929 16.8421 109.929 16.9886V29.73H110.076ZM140.335 17.8673C140.189 17.7208 140.043 17.7208 139.897 17.8673L138.289 19.3318C137.996 19.4783 138.143 19.9176 138.435 19.9176L139.751 19.6247V29.8764C139.751 30.0229 139.605 30.1693 139.458 30.1693H126.156C126.01 30.1693 125.863 30.0229 125.863 29.8764V22.7002C125.863 22.5538 125.717 22.4073 125.571 22.4073C125.425 22.4073 125.279 22.5538 125.279 22.7002V30.1693C125.279 30.6087 125.571 30.9016 126.01 30.9016H139.751C140.189 30.9016 140.482 30.6087 140.482 30.1693V19.7712L141.797 20.0641C142.09 20.0641 142.236 19.7712 141.943 19.4783L140.335 17.8673ZM145.89 16.4027L144.429 14.7918C144.282 14.6453 143.844 14.6453 143.844 14.9382L144.136 16.2563H135.95V7.02975H131.711L125.571 15.2311L119.431 7.02975H115.192V26.2151H118.847V12.3021L125.132 20.6499H125.863L132.295 12.3021V26.2151H135.95V16.9886H144.136L143.844 18.3066C143.844 18.5995 144.136 18.746 144.429 18.4531L145.89 16.8421C146.037 16.6957 146.037 16.5492 145.89 16.4027Z" fill="#EE3433"/>
</svg>
