<svg width="128" height="32" viewBox="0 0 128 32" fill="none" xmlns="http://www.w3.org/2000/svg">
<path d="M43.5203 24.1083C44.7765 25.5397 47.1556 26.4928 49.7121 26.4928C51.9995 26.4928 53.1217 25.8859 53.1217 24.7153C53.1217 24.2824 52.8526 23.9349 52.3598 23.6754C51.8656 23.4146 50.9683 23.1111 49.6224 22.8076C48.2772 22.5042 47.2447 22.2013 46.571 21.9832C43.1166 20.814 41.3669 18.8183 41.3669 15.9142C41.3669 13.7017 42.2193 11.9688 43.9241 10.7542C45.6303 9.4976 47.6926 8.89062 50.1601 8.89062C53.3454 8.89062 55.9026 9.84377 57.9221 11.708L54.7368 15.9575C53.5255 14.873 51.9097 14.3534 49.9806 14.3534C48.545 14.3534 47.7375 14.917 47.7375 15.7407C47.7375 16.3044 47.9632 16.6078 48.681 16.9113C49.5327 17.2575 51.4163 17.5617 53.9293 18.4281C57.6536 19.6427 59.493 21.7238 59.493 24.6286C59.493 29.0948 56.1724 31.9996 49.5327 31.9996C45.1354 31.9996 41.8604 30.6989 39.6621 28.0963L43.5203 24.1083Z" fill="black"/>
<path d="M91.2838 14.7814H88.3369V8.6976H91.2838V0H97.7586V8.6976H102.759V14.7814H97.7586V22.8932C97.7586 25.0563 98.6063 25.9132 100.616 25.9132C100.973 25.9132 101.554 25.8682 102.313 25.733V31.6816C101.42 31.9069 100.348 31.997 99.0542 31.997C93.8741 31.997 91.2838 29.2931 91.2838 23.8853V14.7814Z" fill="black"/>
<path d="M106.367 8.89062H113.089V21.7388C113.089 24.5938 114.736 25.8881 117.184 25.8881C119.632 25.8881 121.279 24.5938 121.279 21.7388V8.89062H128.001V22.318C128.001 25.4414 126.977 27.8503 124.885 29.5008C122.837 31.152 120.255 31.9996 117.184 31.9996C114.113 31.9996 111.531 31.152 109.438 29.5008C107.391 27.8503 106.367 25.4414 106.367 22.318V8.89062Z" fill="black"/>
<path d="M77.0917 24.4294C78.2016 23.3227 78.7565 21.9946 78.7565 20.4438C78.7565 18.8957 78.2016 17.5676 77.0917 16.5044C76.0246 15.3976 74.7013 14.8671 73.1218 14.8671C71.5851 14.8671 70.3045 15.3976 69.2373 16.5044C68.1701 17.5676 67.6579 18.8957 67.6579 20.4438C67.6579 21.9946 68.1701 23.3227 69.2373 24.4294C70.3045 25.4926 71.5851 26.0231 73.1218 26.0231C74.7013 26.0231 76.0246 25.4926 77.0917 24.4294ZM78.3723 12.2109V9.28906H84.7334V31.6012H78.3723V28.6793C77.7334 30.6279 75.2135 31.9996 71.9693 31.9996C68.9385 31.9996 66.3779 30.8929 64.3277 28.6793C62.3214 26.4216 61.2969 23.6775 61.2969 20.4438C61.2969 17.2127 62.3214 14.4687 64.3277 12.2545C66.3779 9.99738 68.9385 8.89062 71.9693 8.89062C75.2135 8.89062 77.7334 10.2623 78.3723 12.2109Z" fill="black"/>
<path d="M32.4505 0V31.997H0V0H32.4505ZM25.014 7.33266H7.43658V24.6644H25.014V7.33266Z" fill="#722A8B"/>
</svg>
