<svg width="172" height="20" viewBox="0 0 172 20" fill="none" xmlns="http://www.w3.org/2000/svg">
<path d="M5.24988 19.6342L0 0.345036H3.44376L7.47742 15.1601L11.8004 0.34375L15.0106 0.345036L19.3487 15.2388L23.4006 0.348679L26.8442 0.34375L21.5921 19.6308L17.6004 19.6267L13.4068 5.22182L9.20932 19.6304L5.24988 19.6342Z" fill="#7D256F"/>
<path d="M29.2197 0.355469H32.4978V19.6221H29.2197V0.355469Z" fill="#7D256F"/>
<path d="M39.5062 16.5999H47.4868V19.6221H36.2959V0.355469H39.5062V16.5999Z" fill="#7D256F"/>
<path d="M57.5697 0.377683C60.26 0.377683 62.4982 1.31104 64.2616 3.15547C66.0477 4.9999 66.952 7.28883 66.952 9.9999C66.952 12.6888 66.0477 14.9777 64.2616 16.8443C62.4982 18.6888 60.26 19.6221 57.5697 19.6221H49.8604V0.355469H57.5697V0.377683ZM57.5697 16.6221C59.4235 16.6221 60.9382 15.9999 62.0686 14.7555C63.2443 13.511 63.8321 11.911 63.8321 10.0221C63.8321 8.08883 63.2443 6.53325 62.0686 5.28883C60.9157 4.04433 59.4009 3.42211 57.5697 3.42211H53.0933V16.6221H57.5697Z" fill="#7D256F"/>
<path d="M84.247 14.1182C84.247 15.6968 83.6823 17.0085 82.5292 18.0535C81.3761 19.0985 80.0194 19.6321 78.3467 19.6321H69.959V0.355469H77.7361C79.3415 0.355469 80.6974 0.889112 81.8054 1.88961C82.9363 2.91233 83.4788 4.17968 83.4788 5.69154C83.4788 7.38133 82.8001 8.6709 81.4893 9.62697C83.2072 10.5163 84.247 12.1171 84.247 14.1182ZM73.1917 3.33483V8.40411H77.7583C79.1831 8.40411 80.2681 7.2924 80.2681 5.86947C80.2681 4.44647 79.1831 3.33483 77.7583 3.33483H73.1917ZM78.3689 16.6528C79.861 16.6528 81.0371 15.4744 81.0371 13.9625C81.0371 12.4506 79.861 11.2723 78.3689 11.2723H73.1917V16.675H78.3689V16.6528Z" fill="#7D256F"/>
<path d="M90.5088 16.6083H99.1905V19.6321H87.2988V0.355469H99.055V3.37926H90.5088V8.38183H98.3541V11.3834H90.5088V16.6083Z" fill="#7D256F"/>
<path d="M113.254 19.6321L109.093 12.6063H105.295V19.6321H102.085V0.355469H109.93C111.693 0.355469 113.185 0.955755 114.384 2.17861C115.604 3.35704 116.238 4.82447 116.238 6.55868C116.238 9.0044 114.678 11.25 112.349 12.1393L116.802 19.6321H113.254ZM105.295 3.33475V9.78254H109.907C111.625 9.78254 112.982 8.35961 112.982 6.55868C112.982 4.77997 111.603 3.33475 109.907 3.33475H105.295Z" fill="#7D256F"/>
<path d="M130.412 19.6323L126.275 12.6028H122.477V19.6323H119.267V0.345703H127.111C128.875 0.345703 130.367 0.946345 131.565 2.16985C132.786 3.34885 133.419 4.81699 133.419 6.55213C133.419 8.99913 131.859 11.2459 129.531 12.1357L133.984 19.6323H130.412ZM122.477 3.32656V9.7777H127.089C128.807 9.7777 130.164 8.35399 130.164 6.55213C130.164 4.77256 128.785 3.32656 127.089 3.32656H122.477Z" fill="#7D256F"/>
<path d="M136.336 0.347656H139.547V19.6322H136.336V0.347656Z" fill="#7D256F"/>
<path d="M146.554 16.6083H155.236V19.632H143.344V0.355469H155.1V3.37926H146.554V8.38183H154.399V11.3834H146.554V16.6083Z" fill="#7D256F"/>
<path d="M157.475 15.2444L160.255 13.6444C161.046 15.8222 162.652 16.8889 165.116 16.8889C167.557 16.8889 168.756 15.8666 168.756 14.3556C168.756 13.5556 168.417 12.9778 167.784 12.5778C167.15 12.1556 165.975 11.6889 164.302 11.2C162.425 10.6444 161.499 10.2889 160.187 9.44443C158.922 8.55557 158.288 7.28886 158.288 5.55557C158.288 3.84443 158.899 2.51114 160.142 1.51114C161.363 0.488858 162.855 0 164.596 0C167.739 0 170.157 1.6 171.424 4.24443L168.711 5.77779C167.896 4 166.518 3.08886 164.596 3.08886C162.719 3.08886 161.521 4.02221 161.521 5.48886C161.521 6.91114 162.471 7.57779 165.478 8.48886C166.224 8.73336 166.766 8.91114 167.105 9.04443C167.467 9.15557 167.942 9.35557 168.552 9.6C169.186 9.84443 169.683 10.1334 169.977 10.3778C171.017 11.1778 172.124 12.4889 171.989 14.3334C171.989 16.0666 171.356 17.4666 170.067 18.4889C168.801 19.5111 167.128 20 165.048 20C161.25 19.9778 158.492 18.2 157.475 15.2444Z" fill="#7D256F"/>
</svg>
